<?xml version="1.0" encoding="UTF-8" standalone="no"?>
<!DOCTYPE svg PUBLIC "-//W3C//DTD SVG 1.1//EN" "http://www.w3.org/Graphics/SVG/1.1/DTD/svg11.dtd">
<svg xmlns="http://www.w3.org/2000/svg" version="1.1" viewBox="0 0 1448 1448">
<path fill="rgb(26,28,34)" fill-opacity="1.000" d="M 0.00 0.00 Q 0.78 0.00 1.56 0.00 Q 2.47 1.23 2.44 3.31 Q 1.69 54.39 2.16 116.00 Q 2.25 126.33 2.20 136.00 Q 2.00 175.37 2.01 214.75 Q 2.01 224.63 0.99 234.45 Q 0.94 234.95 0.84 234.44 Q -0.06 229.65 0.21 224.75 Q 0.44 220.58 0.00 216.44 Q 0.00 108.22 0.00 0.00 Z"/>
<path fill="rgb(94,106,120)" fill-opacity="1.000" d="M 1.56 0.00 Q 724.78 0.00 1448.00 0.00 Q 1448.00 724.00 1448.00 1448.00 Q 724.59 1448.00 1.19 1448.00 Q 2.26 1447.74 2.25 1446.25 Q 1.79 1320.49 1.99 1052.00 Q 2.00 1042.69 2.05 1032.01 Q 2.42 960.63 2.21 889.25 Q 2.14 864.88 2.29 840.50 Q 2.64 823.63 3.43 806.78 Q 3.48 805.56 4.18 803.87 Q 4.78 802.43 4.95 800.87 Q 5.28 797.95 5.80 796.80 Q 7.06 794.04 8.89 791.58 A 1.84 1.44 71.6 0 0 9.21 790.68 Q 9.41 788.36 11.27 788.60 A 1.22 1.16 -77.6 0 0 12.55 787.74 L 13.75 783.77 A 1.42 1.19 -51.9 0 0 13.72 782.86 Q 13.06 781.29 13.95 779.91 Q 14.25 779.44 14.50 779.94 Q 15.18 781.29 14.88 782.76 Q 14.81 783.07 14.95 783.71 L 15.87 787.83 Q 16.11 788.95 16.50 789.48 Q 19.27 793.28 19.25 796.34 Q 19.24 797.33 19.65 798.22 Q 21.79 802.85 22.30 805.74 Q 22.84 808.83 24.58 811.43 Q 25.29 812.49 25.28 813.75 A 2.01 1.34 -69.7 0 0 25.50 814.67 Q 28.49 819.67 31.13 824.84 Q 33.97 830.41 36.75 835.00 Q 39.88 840.18 42.77 845.49 Q 43.42 846.69 45.30 849.10 Q 46.68 850.87 47.53 852.95 Q 48.88 856.31 49.75 857.61 Q 52.64 861.94 55.62 866.20 Q 55.65 866.24 60.40 873.65 Q 62.84 877.46 65.98 880.75 Q 67.70 882.55 68.84 884.74 Q 69.99 886.97 71.35 889.06 Q 72.39 890.66 74.90 892.69 Q 78.54 895.64 79.56 899.19 Q 81.48 905.83 87.92 910.82 Q 88.70 911.43 89.08 912.35 Q 91.08 917.18 96.53 923.56 Q 96.87 923.96 97.07 924.45 Q 98.49 928.04 100.98 930.60 Q 101.90 931.54 102.39 932.76 Q 103.35 935.12 105.13 936.20 A 1.75 1.50 6.9 0 1 105.77 936.90 Q 106.95 939.42 107.94 940.56 Q 110.65 943.69 112.86 947.17 Q 114.51 949.78 116.52 952.07 Q 118.56 954.39 120.34 956.92 Q 123.52 961.43 127.64 965.10 Q 129.38 966.65 131.69 970.06 Q 133.08 972.12 135.80 974.05 Q 138.31 975.82 140.07 977.68 Q 145.51 983.42 152.65 986.95 Q 154.23 987.73 154.93 988.59 Q 155.65 989.48 156.56 990.94 Q 158.68 994.31 164.82 997.35 Q 167.53 998.69 170.15 1000.20 Q 170.18 1000.22 172.03 1001.67 Q 172.94 1002.39 174.50 1003.00 Q 180.79 1005.48 191.77 1011.19 Q 193.01 1011.84 194.80 1013.33 Q 196.26 1014.54 197.94 1015.41 Q 198.64 1015.77 200.31 1016.00 Q 201.56 1016.18 202.70 1016.79 Q 205.61 1018.37 208.82 1018.93 Q 211.16 1019.33 213.05 1020.25 Q 215.50 1021.43 220.00 1023.25 Q 226.55 1025.90 230.79 1026.31 Q 236.59 1026.86 238.06 1027.69 Q 239.78 1028.65 241.68 1029.11 Q 243.47 1029.55 245.29 1030.29 Q 248.39 1031.55 251.82 1031.11 Q 254.54 1030.76 256.97 1032.00 Q 259.97 1033.53 263.25 1034.20 Q 264.54 1034.47 265.74 1035.07 Q 267.29 1035.85 268.25 1036.00 Q 270.50 1036.35 272.63 1037.13 Q 274.56 1037.83 276.66 1037.91 Q 278.66 1037.99 280.59 1038.45 Q 282.41 1038.88 284.47 1038.88 Q 286.78 1038.87 288.97 1039.54 Q 290.22 1039.93 291.62 1039.97 Q 293.00 1040.01 294.34 1040.35 Q 296.74 1040.96 298.28 1040.93 Q 303.16 1040.85 308.00 1041.50 Q 311.01 1041.90 311.81 1041.94 Q 317.57 1042.18 323.33 1042.05 Q 325.29 1042.01 327.09 1042.48 Q 328.94 1042.97 330.79 1043.46 Q 332.36 1043.87 336.42 1044.31 Q 338.36 1044.52 340.24 1045.07 Q 343.40 1045.99 343.95 1046.13 Q 346.88 1046.86 349.76 1047.81 Q 351.20 1048.29 353.32 1049.89 Q 354.81 1051.03 356.94 1052.06 Q 358.88 1053.01 362.45 1055.53 Q 363.80 1056.48 365.95 1057.27 Q 367.70 1057.90 369.56 1058.94 Q 372.08 1060.34 375.10 1061.37 Q 378.57 1062.56 380.61 1063.77 Q 387.34 1067.75 393.75 1072.21 Q 396.31 1073.99 399.25 1075.00 Q 402.39 1076.08 403.06 1076.44 Q 405.71 1077.86 408.17 1079.56 Q 408.22 1079.59 412.52 1083.29 Q 414.19 1084.72 416.17 1085.71 Q 419.79 1087.50 420.07 1087.67 Q 423.92 1090.03 425.31 1091.69 Q 430.40 1097.74 437.69 1100.81 Q 439.75 1101.68 449.07 1107.58 Q 450.69 1108.60 451.91 1110.44 Q 453.06 1112.16 454.40 1113.74 Q 456.02 1115.65 459.16 1117.57 Q 463.11 1119.99 466.78 1122.80 Q 470.63 1125.75 473.81 1127.39 Q 477.55 1129.31 481.31 1131.19 Q 484.29 1132.67 487.07 1136.10 Q 488.75 1138.16 490.54 1139.21 Q 501.06 1145.34 512.24 1150.16 Q 513.75 1150.81 515.66 1152.11 Q 517.30 1153.22 519.08 1154.07 Q 522.94 1155.91 524.34 1156.72 Q 537.28 1164.23 552.16 1166.09 Q 555.70 1166.53 558.81 1167.50 Q 563.76 1169.03 565.50 1169.00 Q 574.24 1168.87 582.98 1169.14 Q 584.28 1169.18 586.09 1169.59 Q 587.63 1169.94 589.21 1170.09 Q 591.99 1170.34 593.88 1170.66 Q 599.16 1171.55 604.46 1170.74 Q 607.14 1170.33 609.55 1170.63 Q 617.94 1171.69 626.29 1170.22 Q 627.48 1170.02 628.72 1170.00 Q 629.95 1169.98 631.18 1169.90 Q 632.36 1169.83 634.80 1170.02 Q 636.87 1170.19 638.86 1169.66 Q 641.12 1169.06 642.76 1169.11 Q 646.75 1169.21 650.66 1168.46 Q 652.06 1168.19 653.23 1168.11 Q 654.53 1168.03 655.82 1167.93 Q 657.32 1167.80 659.54 1167.02 Q 662.03 1166.14 664.69 1165.96 Q 665.18 1165.93 665.62 1165.67 Q 667.87 1164.36 670.37 1164.06 Q 673.90 1163.64 675.03 1163.28 Q 683.55 1160.58 692.02 1157.75 Q 693.94 1157.10 694.66 1156.19 Q 695.75 1154.82 695.34 1152.93 Q 694.78 1150.39 694.88 1149.86 Q 695.21 1148.13 696.66 1147.05 Q 698.50 1145.69 698.57 1145.63 Q 704.46 1140.23 710.97 1135.60 Q 712.47 1134.53 714.07 1132.46 Q 715.51 1130.60 717.31 1129.31 Q 722.31 1125.74 730.03 1120.63 Q 732.22 1119.18 735.36 1118.21 Q 740.24 1116.71 744.71 1114.24 Q 745.49 1113.81 747.46 1111.87 Q 748.98 1110.38 751.69 1109.19 Q 754.26 1108.05 757.56 1104.06 Q 758.82 1102.54 762.33 1100.80 Q 764.03 1099.96 765.50 1098.36 Q 767.15 1096.56 769.18 1095.21 Q 769.65 1094.90 773.56 1093.33 Q 776.70 1092.08 778.67 1089.10 Q 778.95 1088.68 779.38 1088.45 Q 784.23 1085.87 785.81 1083.31 Q 788.72 1078.63 790.81 1077.06 Q 793.76 1074.86 796.66 1072.58 Q 796.74 1072.52 797.79 1071.39 Q 798.48 1070.66 799.81 1070.06 Q 801.88 1069.14 804.03 1067.14 Q 806.38 1064.96 807.91 1063.86 Q 814.95 1058.78 820.75 1052.29 Q 822.04 1051.95 822.96 1050.95 Q 827.40 1046.13 832.44 1041.93 Q 835.86 1039.08 836.79 1034.57 A 2.26 1.91 1.5 0 1 838.74 1033.01 L 841.75 1032.71 Q 843.36 1033.23 844.69 1032.19 A 3.69 1.90 15.3 0 1 847.06 1031.69 Q 848.93 1031.82 849.35 1030.17 A 1.70 1.05 88.0 0 1 849.81 1029.36 Q 852.04 1027.53 854.81 1027.69 Q 855.51 1027.73 855.57 1027.25 A 1.08 0.65 27.8 0 0 855.09 1026.46 Q 847.85 1021.23 855.89 1017.45 Q 856.17 1017.32 855.85 1017.35 Q 853.78 1017.56 855.67 1016.90 Q 857.82 1016.15 858.68 1014.34 Q 859.28 1013.08 858.56 1010.81 Q 858.06 1009.24 857.75 1007.62 Q 857.31 1005.26 856.88 1004.48 Q 855.71 1002.35 853.25 1001.75 Q 850.93 1001.19 848.23 1001.28 Q 844.75 1001.41 843.27 1001.25 Q 841.17 1001.03 839.08 1000.77 Q 838.42 1000.69 834.97 999.96 Q 832.30 999.39 830.00 999.75 Q 825.31 1000.47 821.32 999.74 Q 818.50 999.22 817.12 999.05 Q 814.32 998.71 813.00 998.00 Q 810.02 996.41 807.44 997.44 Q 804.67 998.54 802.28 997.95 Q 798.73 997.08 798.60 997.07 Q 794.65 996.88 791.25 998.25 Q 788.63 999.31 786.24 998.86 A 1.39 1.32 34.9 0 0 785.31 999.00 Q 782.68 1000.41 779.75 1000.99 Q 776.86 1001.56 774.62 1003.28 Q 772.48 1004.92 771.61 1005.31 Q 770.05 1006.01 768.19 1006.59 A 2.54 2.52 46.2 0 1 766.58 1006.55 Q 763.81 1005.53 761.84 1006.66 Q 758.80 1008.42 755.25 1008.00 Q 752.94 1007.73 751.69 1009.19 Q 750.32 1010.79 748.66 1012.03 Q 747.64 1012.80 745.06 1014.03 Q 742.76 1015.13 740.60 1016.47 Q 739.56 1017.12 736.25 1018.58 Q 733.70 1019.70 731.83 1021.90 Q 731.75 1022.00 731.87 1022.02 Q 732.41 1022.09 731.75 1022.25 Q 727.74 1023.21 725.75 1023.25 Q 724.23 1023.28 720.93 1024.79 Q 719.68 1025.36 718.01 1026.79 Q 716.39 1028.18 714.94 1028.69 Q 711.04 1030.05 708.95 1032.21 Q 707.92 1033.28 706.53 1033.36 Q 704.17 1033.51 704.01 1033.55 Q 698.51 1034.91 693.16 1036.74 Q 691.03 1037.47 688.73 1037.80 Q 685.36 1038.29 684.25 1038.75 Q 681.45 1039.90 678.47 1040.17 Q 677.74 1040.24 674.13 1040.89 Q 670.87 1041.47 665.94 1040.37 Q 665.47 1040.27 664.99 1040.25 Q 655.80 1039.88 650.05 1032.98 Q 650.00 1032.92 649.66 1032.35 Q 649.07 1031.35 647.53 1033.04 A 0.51 0.51 -36.1 0 1 646.69 1032.91 Q 645.50 1030.38 644.66 1027.52 Q 644.19 1025.91 644.79 1024.52 Q 645.30 1023.33 646.19 1021.69 Q 647.11 1019.99 647.03 1017.50 A 1.38 1.29 -28.3 0 1 647.33 1016.61 Q 649.25 1014.21 649.10 1011.07 Q 649.08 1010.60 649.32 1010.13 Q 649.95 1008.88 649.50 1007.50 Q 648.88 1005.62 650.94 1003.19 Q 652.10 1001.81 651.98 999.67 Q 651.91 998.36 652.37 997.13 Q 653.45 994.23 654.50 991.41 Q 655.60 988.46 656.03 985.56 Q 656.52 982.22 656.90 978.87 Q 657.25 975.78 658.15 972.25 Q 660.08 964.65 660.00 958.75 Q 659.97 956.84 660.44 955.86 Q 660.69 955.31 660.72 954.94 Q 661.01 951.29 662.59 948.10 Q 665.25 942.73 665.32 942.54 Q 668.04 935.48 670.40 928.29 Q 670.69 927.41 670.60 928.30 L 670.21 931.96 Q 670.19 932.12 670.23 931.98 L 674.17 918.85 Q 674.85 916.61 675.44 915.37 Q 676.70 912.77 679.05 909.27 Q 679.76 908.22 679.87 907.00 Q 679.98 905.77 680.07 904.54 Q 680.20 902.70 680.99 901.00 Q 684.82 892.69 686.92 883.79 Q 687.30 882.17 688.15 880.52 Q 688.96 878.94 689.61 877.30 Q 689.63 877.24 690.02 875.52 Q 690.34 874.08 691.89 872.43 A 1.34 1.32 57.8 0 0 692.19 871.08 Q 690.70 866.59 689.34 864.22 Q 688.26 862.35 685.71 861.95 Q 683.68 861.64 683.90 859.42 L 684.16 856.80 A 1.13 0.73 32.9 0 0 683.81 856.02 Q 683.25 855.47 684.57 855.44 Q 684.80 855.43 684.58 855.35 Q 684.03 855.16 684.71 854.75 Q 718.57 852.63 752.25 848.54 Q 752.05 850.17 753.04 851.45 Q 761.87 862.83 770.16 874.61 Q 774.12 880.23 775.99 884.44 Q 778.33 889.71 779.72 895.32 Q 781.41 902.15 782.52 904.98 Q 787.67 918.22 795.69 933.06 Q 799.92 940.89 817.40 975.33 Q 820.93 982.28 825.11 988.86 Q 828.92 994.87 835.25 995.25 Q 843.76 995.76 849.14 989.67 Q 851.10 987.46 852.43 983.77 Q 853.53 980.71 854.45 977.25 A 2.29 2.28 6.9 0 1 856.62 975.55 Q 857.36 975.54 858.51 975.42 Q 859.49 975.32 860.38 975.37 Q 872.40 976.13 884.44 976.31 Q 892.71 976.44 899.16 973.65 Q 904.72 971.25 906.68 967.01 Q 908.98 962.02 906.33 955.93 Q 903.80 950.10 901.99 943.98 A 1.00 1.00 -11.9 0 1 902.82 942.71 Q 907.11 942.14 911.74 941.67 Q 918.39 941.01 923.82 937.58 Q 927.74 935.11 929.15 931.96 Q 930.98 927.90 928.91 923.59 Q 928.02 921.74 926.29 920.11 Q 924.46 918.38 922.69 917.56 Q 901.78 907.87 876.55 900.33 Q 865.72 897.09 855.00 893.50 Q 825.70 883.69 803.49 862.27 Q 794.25 853.37 788.69 847.56 Q 785.21 843.93 782.25 841.75 Q 781.77 841.40 778.75 840.96 Q 794.69 833.84 808.71 823.42 Q 815.89 818.09 824.56 808.81 Q 841.56 790.63 847.28 767.51 Q 849.50 758.53 849.25 747.75 Q 848.78 727.12 848.09 706.50 Q 847.83 698.74 848.23 691.31 Q 848.34 689.33 850.05 688.32 Q 865.20 679.37 881.29 672.27 Q 897.14 665.28 914.22 666.92 Q 918.23 667.30 923.29 668.10 Q 927.81 668.81 932.26 669.98 Q 940.83 672.23 949.31 674.82 Q 961.28 678.49 966.35 679.66 Q 989.20 684.96 1012.75 685.71 Q 1026.45 689.46 1041.50 696.75 Q 1042.87 697.42 1043.00 698.46 Q 1017.16 719.33 988.29 735.78 Q 980.72 740.09 978.81 741.81 Q 973.02 747.04 971.20 754.33 Q 969.93 759.43 970.22 762.71 Q 970.64 767.48 974.81 770.44 Q 981.55 775.20 990.56 777.75 Q 995.66 779.18 996.42 779.30 Q 999.71 779.84 1002.63 778.55 Q 1003.80 778.03 1009.61 773.57 Q 1014.64 769.71 1019.61 765.77 Q 1025.05 761.46 1029.71 758.12 Q 1057.19 738.42 1085.04 719.25 Q 1089.70 716.77 1093.31 715.56 Q 1099.65 713.45 1104.31 711.12 Q 1113.08 706.73 1117.54 698.02 Q 1119.98 693.27 1121.79 688.25 Q 1125.28 681.86 1122.69 675.56 Q 1119.19 667.09 1110.00 664.25 Q 1104.10 662.43 1098.04 661.25 Q 1094.57 660.43 1093.81 659.69 Q 1073.89 640.26 1056.31 618.69 Q 1055.64 617.87 1054.79 617.25 Q 1046.75 602.16 1032.30 592.95 Q 1012.09 580.08 988.01 579.32 Q 966.90 578.66 949.81 589.56 Q 946.41 591.73 942.91 592.54 Q 940.48 593.09 935.58 592.48 Q 925.21 591.18 914.75 591.77 Q 899.50 592.63 884.61 596.03 Q 853.53 603.13 824.39 616.09 Q 818.49 618.72 812.35 621.41 Q 810.63 622.16 809.64 620.56 Q 799.26 603.79 787.20 588.35 Q 781.45 581.00 773.88 573.46 Q 762.44 562.09 750.60 551.13 Q 736.50 538.07 718.06 525.94 Q 697.00 512.07 675.13 504.26 Q 654.38 496.85 633.26 490.63 Q 626.47 488.64 620.18 487.13 Q 611.90 485.16 606.94 484.31 Q 582.83 480.20 558.84 475.46 Q 550.11 473.74 541.61 472.31 Q 532.97 470.86 524.33 469.34 Q 516.84 468.02 511.56 466.44 Q 484.28 458.24 458.77 444.37 Q 456.55 443.16 441.57 434.16 Q 425.67 424.60 411.44 418.56 Q 401.85 414.49 392.97 418.33 Q 387.72 420.60 382.16 426.63 Q 377.23 432.00 374.06 437.81 Q 368.90 447.29 368.73 459.25 Q 368.46 477.64 372.79 495.50 Q 383.96 544.02 409.53 586.50 Q 412.21 590.95 415.90 596.18 Q 419.24 600.93 422.62 605.65 Q 424.86 608.78 425.50 611.25 Q 427.24 617.93 427.49 625.78 Q 427.83 636.15 427.83 636.22 Q 429.02 652.95 431.79 669.50 Q 431.72 672.77 429.94 675.19 Q 425.41 681.32 424.73 688.44 Q 424.41 691.88 425.97 698.92 Q 427.79 707.15 428.94 715.51 Q 429.68 720.94 425.31 724.31 Q 418.08 729.89 411.48 737.70 Q 405.69 744.55 403.69 752.94 Q 398.90 772.99 393.46 790.50 Q 390.76 789.48 388.37 787.91 Q 387.05 787.04 385.87 784.96 Q 383.30 780.43 378.49 778.71 Q 376.37 777.95 372.31 778.26 Q 365.38 778.79 358.50 777.59 Q 358.06 777.51 357.53 777.67 Q 355.94 778.13 353.50 777.50 Q 351.86 777.08 346.50 777.16 Q 342.67 777.22 339.55 776.69 Q 334.08 775.77 332.50 775.25 Q 329.70 774.33 327.44 774.17 Q 323.07 773.87 322.60 773.77 Q 312.79 771.70 305.75 768.25 Q 302.09 766.46 298.99 767.13 A 1.25 1.16 -33.5 0 1 298.08 766.98 Q 295.46 765.38 293.50 765.25 Q 290.80 765.07 288.97 764.14 Q 286.31 762.79 286.28 762.77 Q 283.39 761.63 280.67 760.15 Q 279.18 759.34 277.51 759.00 Q 275.84 758.66 274.19 758.22 Q 273.67 758.08 269.24 757.07 Q 265.18 756.15 260.81 753.69 Q 259.09 752.72 256.65 752.40 Q 253.86 752.04 252.44 751.60 Q 246.77 749.86 240.99 748.54 Q 238.74 748.02 240.84 748.00 Q 241.35 747.99 240.90 747.74 Q 239.01 746.66 237.39 745.34 Q 233.62 742.26 229.07 740.73 Q 227.16 740.08 223.82 740.08 Q 221.13 740.07 218.46 739.73 Q 215.95 739.41 212.48 739.29 Q 209.47 739.19 206.50 738.50 Q 204.71 738.08 200.36 738.19 Q 198.82 738.22 196.75 737.66 Q 194.94 737.16 193.06 737.13 Q 190.19 737.07 188.53 736.59 Q 182.10 734.72 175.55 733.33 Q 170.43 732.25 164.34 732.25 Q 158.67 732.25 153.00 732.25 Q 150.23 732.25 148.26 731.89 Q 144.79 731.25 143.64 731.25 Q 135.79 731.25 127.93 731.25 Q 126.23 731.25 122.16 730.55 Q 118.79 729.97 115.43 730.58 Q 111.98 731.20 109.98 731.17 Q 104.97 731.08 99.98 731.48 Q 95.61 731.83 89.99 731.95 Q 82.30 732.12 74.75 733.77 Q 72.48 734.26 70.44 733.24 A 1.54 0.76 37.7 0 0 69.50 733.05 L 66.47 733.81 Q 65.83 733.97 65.50 733.94 Q 62.93 733.70 60.19 735.19 Q 58.02 736.36 55.18 736.37 Q 52.69 736.38 51.49 737.05 Q 50.04 737.87 48.31 739.31 Q 46.01 741.24 42.15 742.18 Q 38.57 743.06 38.50 743.08 Q 29.94 745.67 25.06 749.81 Q 22.43 752.05 19.80 757.65 Q 19.62 758.02 18.82 759.03 Q 18.25 759.73 18.19 760.69 A 2.00 1.14 77.3 0 1 17.91 761.61 L 16.54 763.59 A 1.51 1.44 61.5 0 0 16.29 764.51 Q 16.49 767.86 14.66 770.62 A 1.40 1.23 -30.5 0 0 14.43 771.32 Q 14.29 776.08 13.79 771.35 A 0.82 0.82 -74.4 0 0 13.48 770.80 Q 11.19 769.06 10.56 766.69 Q 9.70 763.43 10.13 758.76 Q 10.37 756.18 8.31 756.36 A 0.57 0.49 -7.5 0 1 7.71 755.96 Q 7.54 755.02 7.69 754.11 Q 7.99 752.35 7.94 751.85 Q 7.75 749.49 6.87 747.27 Q 6.68 746.78 6.36 747.20 Q 6.17 747.46 6.01 747.74 Q 5.75 748.18 5.72 748.83 Q 5.20 760.58 4.54 772.32 Q 4.51 772.83 4.58 773.67 Q 4.74 775.73 3.62 774.84 A 1.13 0.95 -73.1 0 1 3.26 773.99 Q 3.56 756.82 2.85 739.67 Q 2.82 738.74 2.33 734.87 Q 2.03 732.46 2.21 730.00 Q 2.41 696.63 2.10 663.26 Q 2.03 654.80 2.11 643.25 Q 2.26 623.67 2.00 593.25 Q 1.58 543.17 2.22 347.75 Q 2.29 326.13 1.25 309.50 Q 1.17 308.20 0.00 306.94 Q 0.00 261.69 0.00 216.44 Q 0.44 220.58 0.21 224.75 Q -0.06 229.65 0.84 234.44 Q 0.94 234.95 0.99 234.45 Q 2.01 224.63 2.01 214.75 Q 2.00 175.37 2.20 136.00 Q 2.25 126.33 2.16 116.00 Q 1.69 54.39 2.44 3.31 Q 2.47 1.23 1.56 0.00 Z M 1113.20 664.18 Q 1120.39 668.08 1123.67 675.11 Q 1124.08 676.01 1124.15 677.63 Q 1124.20 678.96 1124.63 680.21 A 0.69 0.69 -10.9 0 0 1125.31 680.67 Q 1140.96 680.25 1150.50 680.75 Q 1157.07 681.09 1162.82 679.30 Q 1167.04 677.99 1173.47 673.46 Q 1191.25 660.91 1213.81 641.81 Q 1228.66 629.24 1237.75 619.80 Q 1241.12 616.30 1242.64 613.67 Q 1244.63 610.24 1245.63 606.33 Q 1248.28 595.93 1241.68 587.80 Q 1238.17 583.46 1233.50 583.00 Q 1226.88 582.34 1221.15 585.42 Q 1220.85 585.58 1211.22 592.49 Q 1195.02 604.11 1178.99 615.97 Q 1160.54 629.64 1141.59 642.61 Q 1127.41 652.32 1113.13 663.23 A 0.56 0.56 -49.2 0 0 1113.20 664.18 Z"/>
<path fill="rgb(26,28,34)" fill-opacity="1.000" d="M 0.00 306.94 Q 1.17 308.20 1.25 309.50 Q 2.29 326.13 2.22 347.75 Q 1.58 543.17 2.00 593.25 Q 2.26 623.67 2.11 643.25 Q 2.03 654.80 2.10 663.26 Q 2.41 696.63 2.21 730.00 Q 1.42 746.77 1.59 763.55 Q 1.77 781.38 1.77 781.47 Q 1.87 810.98 2.29 840.50 Q 2.14 864.88 2.21 889.25 Q 2.42 960.63 2.05 1032.01 Q 2.00 1042.69 1.99 1052.00 Q 1.79 1320.49 2.25 1446.25 Q 2.26 1447.74 1.19 1448.00 Q 0.59 1448.00 0.00 1448.00 Q 0.00 960.47 0.00 472.94 Q 0.63 469.56 0.00 466.19 Q 0.00 465.56 0.00 464.94 Q 0.63 461.69 0.00 458.44 Q 0.00 387.19 0.00 315.94 Q 0.63 311.69 0.00 307.44 Q 0.00 307.19 0.00 306.94 Z"/>
<path fill="rgb(94,106,120)" fill-opacity="1.000" d="M 0.00 307.44 Q 0.63 311.69 0.00 315.94 Q 0.00 311.69 0.00 307.44 Z"/>
<path fill="rgb(254,254,254)" fill-opacity="1.000" d="M 1054.79 617.25 Q 1048.29 624.65 1039.60 629.12 Q 1035.37 631.30 1033.99 632.71 Q 1031.58 635.19 1030.43 638.56 Q 1029.49 641.31 1029.45 641.39 Q 1026.14 649.87 1021.19 664.19 Q 1018.19 672.86 1012.75 685.71 Q 989.20 684.96 966.35 679.66 Q 961.28 678.49 949.31 674.82 Q 940.83 672.23 932.26 669.98 Q 927.81 668.81 923.29 668.10 Q 918.23 667.30 914.22 666.92 Q 897.14 665.28 881.29 672.27 Q 865.20 679.37 850.05 688.32 Q 848.34 689.33 848.23 691.31 Q 847.83 698.74 848.09 706.50 Q 848.78 727.12 849.25 747.75 Q 849.50 758.53 847.28 767.51 Q 841.56 790.63 824.56 808.81 Q 815.89 818.09 808.71 823.42 Q 794.69 833.84 778.75 840.96 L 752.25 848.54 Q 718.57 852.63 684.71 854.75 L 666.25 854.54 L 638.54 851.50 Q 621.50 848.81 609.50 847.25 Q 592.46 845.04 574.47 844.43 Q 574.29 844.43 559.04 843.76 Q 549.61 843.34 539.00 843.75 Q 528.39 844.16 503.00 844.50 Q 484.47 844.75 471.75 844.41 Q 458.98 844.07 451.76 843.60 Q 439.23 842.80 429.25 840.50 Q 418.03 837.91 413.75 837.21 Q 395.52 825.46 389.00 804.71 L 393.46 790.50 Q 398.90 772.99 403.69 752.94 Q 405.69 744.55 411.48 737.70 Q 418.08 729.89 425.31 724.31 Q 429.68 720.94 428.94 715.51 Q 427.79 707.15 425.97 698.92 Q 424.41 691.88 424.73 688.44 Q 425.41 681.32 429.94 675.19 Q 431.72 672.77 431.79 669.50 Q 433.62 668.61 435.58 668.16 Q 437.92 667.62 439.32 666.86 Q 445.55 663.49 451.88 660.28 Q 452.45 660.00 454.90 659.39 Q 456.54 658.98 457.69 657.64 A 1.48 1.26 -70.8 0 1 458.49 657.17 Q 462.15 656.54 465.69 655.46 Q 473.44 653.08 481.50 654.00 Q 487.31 654.66 500.15 659.46 Q 511.86 663.84 523.40 668.66 Q 540.32 675.72 557.37 682.47 Q 574.22 689.14 591.90 692.74 Q 602.01 694.80 611.59 696.27 Q 629.78 699.05 648.24 698.32 Q 652.43 698.15 654.69 696.19 Q 657.64 693.62 654.69 691.56 Q 651.13 689.09 641.50 685.25 Q 626.70 679.35 600.28 665.76 Q 553.17 641.54 507.42 614.84 Q 471.14 593.67 439.98 565.51 Q 431.11 557.51 422.28 549.47 Q 408.66 537.07 396.49 523.25 Q 387.86 513.44 381.55 502.00 Q 379.70 498.65 377.16 495.19 A 1.65 1.33 -23.5 0 0 375.51 494.74 L 372.79 495.50 Q 368.46 477.64 368.73 459.25 Q 368.90 447.29 374.06 437.81 Q 377.23 432.00 382.16 426.63 Q 387.72 420.60 392.97 418.33 Q 401.85 414.49 411.44 418.56 Q 425.67 424.60 441.57 434.16 Q 456.55 443.16 458.77 444.37 Q 484.28 458.24 511.56 466.44 Q 516.84 468.02 524.33 469.34 Q 532.97 470.86 541.61 472.31 Q 550.11 473.74 558.84 475.46 Q 582.83 480.20 606.94 484.31 Q 611.90 485.16 620.18 487.13 Q 626.47 488.64 633.26 490.63 Q 654.38 496.85 675.13 504.26 Q 697.00 512.07 718.06 525.94 Q 736.50 538.07 750.60 551.13 Q 762.44 562.09 773.88 573.46 Q 781.45 581.00 787.20 588.35 Q 799.26 603.79 809.64 620.56 Q 810.63 622.16 812.35 621.41 Q 818.49 618.72 824.39 616.09 Q 853.53 603.13 884.61 596.03 Q 899.50 592.63 914.75 591.77 Q 925.21 591.18 935.58 592.48 Q 940.48 593.09 942.91 592.54 Q 946.41 591.73 949.81 589.56 Q 966.90 578.66 988.01 579.32 Q 1012.09 580.08 1032.30 592.95 Q 1046.75 602.16 1054.79 617.25 Z M 1003.21 620.89 A 6.91 6.91 0 0 0 996.30 613.98 A 6.91 6.91 0 0 0 989.39 620.89 A 6.91 6.91 0 0 0 996.30 627.80 A 6.91 6.91 0 0 0 1003.21 620.89 Z"/>
<path fill="rgb(76,88,100)" fill-opacity="1.000" d="M 0.00 458.44 Q 0.63 461.69 0.00 464.94 Q 0.00 461.69 0.00 458.44 Z"/>
<path fill="rgb(76,88,100)" fill-opacity="1.000" d="M 0.00 466.19 Q 0.63 469.56 0.00 472.94 Q 0.00 469.56 0.00 466.19 Z"/>
<path fill="rgb(235,240,246)" fill-opacity="1.000" d="M 431.79 669.50 Q 429.02 652.95 427.83 636.22 Q 427.83 636.15 427.49 625.78 Q 427.24 617.93 425.50 611.25 Q 424.86 608.78 422.62 605.65 Q 419.24 600.93 415.90 596.18 Q 412.21 590.95 409.53 586.50 Q 383.96 544.02 372.79 495.50 L 375.51 494.74 A 1.65 1.33 -23.5 0 1 377.16 495.19 Q 379.70 498.65 381.55 502.00 Q 387.86 513.44 396.49 523.25 Q 408.66 537.07 422.28 549.47 Q 431.11 557.51 439.98 565.51 Q 471.14 593.67 507.42 614.84 Q 553.17 641.54 600.28 665.76 Q 626.70 679.35 641.50 685.25 Q 651.13 689.09 654.69 691.56 Q 657.64 693.62 654.69 696.19 Q 652.43 698.15 648.24 698.32 Q 629.78 699.05 611.59 696.27 Q 602.01 694.80 591.90 692.74 Q 574.22 689.14 557.37 682.47 Q 540.32 675.72 523.40 668.66 Q 511.86 663.84 500.15 659.46 Q 487.31 654.66 481.50 654.00 Q 473.44 653.08 465.69 655.46 Q 462.15 656.54 458.49 657.17 A 1.48 1.26 -70.8 0 0 457.69 657.64 Q 456.54 658.98 454.90 659.39 Q 452.45 660.00 451.88 660.28 Q 445.55 663.49 439.32 666.86 Q 437.92 667.62 435.58 668.16 Q 433.62 668.61 431.79 669.50 Z"/>
<path fill="rgb(147,146,146)" fill-opacity="1.000" d="M 1113.20 664.18 A 0.56 0.56 -49.2 0 1 1113.13 663.23 Q 1127.41 652.32 1141.59 642.61 Q 1160.54 629.64 1178.99 615.97 Q 1195.02 604.11 1211.22 592.49 Q 1220.85 585.58 1221.15 585.42 Q 1226.88 582.34 1233.50 583.00 Q 1238.17 583.46 1241.68 587.80 Q 1248.28 595.93 1245.63 606.33 Q 1244.63 610.24 1242.64 613.67 Q 1241.12 616.30 1237.75 619.80 Q 1228.66 629.24 1213.81 641.81 Q 1191.25 660.91 1173.47 673.46 Q 1167.04 677.99 1162.82 679.30 Q 1157.07 681.09 1150.50 680.75 Q 1140.96 680.25 1125.31 680.67 A 0.69 0.69 -10.9 0 1 1124.63 680.21 Q 1124.20 678.96 1124.15 677.63 Q 1124.08 676.01 1123.67 675.11 Q 1120.39 668.08 1113.20 664.18 Z"/>
<circle fill="rgb(4,5,8)" fill-opacity="1.000" cx="996.30" cy="620.89" r="6.91"/>
<path fill="rgb(254,160,63)" fill-opacity="1.000" d="M 1054.79 617.25 Q 1055.64 617.87 1056.31 618.69 Q 1073.89 640.26 1093.81 659.69 Q 1094.57 660.43 1098.04 661.25 Q 1098.10 662.34 1098.48 663.34 Q 1098.81 664.20 1099.76 665.00 Q 1110.60 674.13 1118.89 685.65 A 1.95 1.38 -73.3 0 1 1119.20 686.57 Q 1119.37 688.87 1121.79 688.25 Q 1119.98 693.27 1117.54 698.02 Q 1113.08 706.73 1104.31 711.12 Q 1099.65 713.45 1093.31 715.56 Q 1089.70 716.77 1085.04 719.25 Q 1085.22 716.19 1083.31 715.19 Q 1072.68 709.60 1070.31 708.19 Q 1057.62 700.64 1043.00 698.46 Q 1042.87 697.42 1041.50 696.75 Q 1026.45 689.46 1012.75 685.71 Q 1018.19 672.86 1021.19 664.19 Q 1026.14 649.87 1029.45 641.39 Q 1029.49 641.31 1030.43 638.56 Q 1031.58 635.19 1033.99 632.71 Q 1035.37 631.30 1039.60 629.12 Q 1048.29 624.65 1054.79 617.25 Z"/>
<path fill="rgb(254,232,153)" fill-opacity="1.000" d="M 1098.04 661.25 Q 1104.10 662.43 1110.00 664.25 Q 1119.19 667.09 1122.69 675.56 Q 1125.28 681.86 1121.79 688.25 Q 1119.37 688.87 1119.20 686.57 A 1.95 1.38 -73.3 0 0 1118.89 685.65 Q 1110.60 674.13 1099.76 665.00 Q 1098.81 664.20 1098.48 663.34 Q 1098.10 662.34 1098.04 661.25 Z"/>
<path fill="rgb(255,225,153)" fill-opacity="1.000" d="M 1043.00 698.46 Q 1057.62 700.64 1070.31 708.19 Q 1072.68 709.60 1083.31 715.19 Q 1085.22 716.19 1085.04 719.25 Q 1057.19 738.42 1029.71 758.12 Q 1025.05 761.46 1019.61 765.77 Q 1014.64 769.71 1009.61 773.57 Q 1003.80 778.03 1002.63 778.55 Q 999.71 779.84 996.42 779.30 Q 995.66 779.18 990.56 777.75 Q 981.55 775.20 974.81 770.44 Q 970.64 767.48 970.22 762.71 Q 969.93 759.43 971.20 754.33 Q 973.02 747.04 978.81 741.81 Q 980.72 740.09 988.29 735.78 Q 1017.16 719.33 1043.00 698.46 Z"/>
<path fill="rgb(87,100,113)" fill-opacity="1.000" d="M 2.21 730.00 Q 2.03 732.46 2.33 734.87 Q 2.82 738.74 2.85 739.67 Q 3.56 756.82 3.26 773.99 A 1.13 0.95 -73.1 0 0 3.62 774.84 Q 4.74 775.73 4.58 773.67 Q 4.51 772.83 4.54 772.32 Q 5.20 760.58 5.72 748.83 Q 5.75 748.18 6.01 747.74 Q 6.17 747.46 6.36 747.20 Q 6.68 746.78 6.87 747.27 Q 7.75 749.49 7.94 751.85 Q 7.99 752.35 7.69 754.11 Q 7.54 755.02 7.71 755.96 A 0.57 0.49 -7.5 0 0 8.31 756.36 Q 10.37 756.18 10.13 758.76 Q 9.70 763.43 10.56 766.69 Q 11.19 769.06 13.48 770.80 A 0.82 0.82 -74.4 0 1 13.79 771.35 Q 14.29 776.08 14.43 771.32 A 1.40 1.23 -30.5 0 1 14.66 770.62 Q 16.49 767.86 16.29 764.51 A 1.51 1.44 61.5 0 1 16.54 763.59 L 17.91 761.61 A 2.00 1.14 77.3 0 0 18.19 760.69 Q 18.25 759.73 18.82 759.03 Q 19.62 758.02 19.80 757.65 Q 22.43 752.05 25.06 749.81 Q 29.94 745.67 38.50 743.08 Q 38.57 743.06 42.15 742.18 Q 46.01 741.24 48.31 739.31 Q 50.04 737.87 51.49 737.05 Q 52.69 736.38 55.18 736.37 Q 58.02 736.36 60.19 735.19 Q 62.93 733.70 65.50 733.94 Q 65.83 733.97 66.47 733.81 L 69.50 733.05 A 1.54 0.76 37.7 0 1 70.44 733.24 Q 72.48 734.26 74.75 733.77 Q 82.30 732.12 89.99 731.95 Q 95.61 731.83 99.98 731.48 Q 104.97 731.08 109.98 731.17 Q 111.98 731.20 115.43 730.58 Q 118.79 729.97 122.16 730.55 Q 126.23 731.25 127.93 731.25 Q 135.79 731.25 143.64 731.25 Q 144.79 731.25 148.26 731.89 Q 150.23 732.25 153.00 732.25 Q 158.67 732.25 164.34 732.25 Q 170.43 732.25 175.55 733.33 Q 182.10 734.72 188.53 736.59 Q 190.19 737.07 193.06 737.13 Q 194.94 737.16 196.75 737.66 Q 198.82 738.22 200.36 738.19 Q 204.71 738.08 206.50 738.50 Q 209.47 739.19 212.48 739.29 Q 215.95 739.41 218.46 739.73 Q 221.13 740.07 223.82 740.08 Q 227.16 740.08 229.07 740.73 Q 233.62 742.26 237.39 745.34 Q 239.01 746.66 240.90 747.74 Q 241.35 747.99 240.84 748.00 Q 238.74 748.02 240.99 748.54 Q 246.77 749.86 252.44 751.60 Q 253.86 752.04 256.65 752.40 Q 259.09 752.72 260.81 753.69 Q 265.18 756.15 269.24 757.07 Q 273.67 758.08 274.19 758.22 Q 275.84 758.66 277.51 759.00 Q 279.18 759.34 280.67 760.15 Q 283.39 761.63 286.28 762.77 Q 286.31 762.79 288.97 764.14 Q 290.80 765.07 293.50 765.25 Q 295.46 765.38 298.08 766.98 A 1.25 1.16 -33.5 0 0 298.99 767.13 Q 302.09 766.46 305.75 768.25 Q 312.79 771.70 322.60 773.77 Q 323.07 773.87 327.44 774.17 Q 329.70 774.33 332.50 775.25 Q 334.08 775.77 339.55 776.69 Q 342.67 777.22 346.50 777.16 Q 351.86 777.08 353.50 777.50 Q 355.94 778.13 357.53 777.67 Q 358.06 777.51 358.50 777.59 Q 365.38 778.79 372.31 778.26 Q 376.37 777.95 378.49 778.71 Q 383.30 780.43 385.87 784.96 Q 387.05 787.04 388.37 787.91 Q 390.76 789.48 393.46 790.50 L 389.00 804.71 L 387.29 805.75 L 387.73 803.77 A 0.32 0.28 -85.8 0 0 387.44 803.38 Q 386.00 803.52 384.81 802.94 Q 383.17 802.14 379.52 799.69 Q 375.12 796.75 369.98 796.30 Q 366.04 795.96 364.11 795.51 Q 355.86 793.61 347.36 793.91 Q 345.95 793.96 343.75 793.36 Q 341.94 792.86 340.00 793.03 Q 337.66 793.22 335.46 792.66 Q 333.37 792.13 331.43 792.09 Q 328.93 792.05 326.25 791.25 Q 322.35 790.09 304.77 785.67 Q 292.94 782.69 289.50 780.75 Q 287.40 779.57 284.50 779.25 Q 279.55 778.71 274.39 776.27 Q 268.15 773.32 261.56 771.35 Q 253.72 769.01 251.57 768.22 Q 246.64 766.42 241.75 764.50 Q 235.97 762.23 217.05 757.75 Q 212.81 756.75 208.46 756.78 Q 206.98 756.79 205.72 756.45 Q 204.37 756.10 203.02 755.75 Q 200.99 755.24 198.91 755.14 Q 193.68 754.91 188.45 754.95 Q 185.77 754.98 182.68 754.16 Q 177.81 752.87 173.75 753.00 Q 167.29 753.20 162.10 752.69 Q 155.15 752.00 152.35 752.00 Q 141.01 752.00 129.66 752.00 Q 128.90 752.00 127.43 752.42 Q 126.25 752.75 125.07 752.53 Q 122.44 752.04 121.84 752.09 Q 118.29 752.38 114.89 753.44 Q 113.30 753.94 111.50 754.01 Q 109.75 754.08 108.04 754.39 Q 104.81 754.99 102.90 755.05 Q 88.33 755.50 73.56 760.31 Q 68.45 761.98 64.34 764.61 Q 60.23 767.24 58.50 771.10 Q 56.42 775.73 56.96 780.96 Q 57.16 782.96 58.82 786.35 Q 60.37 789.51 61.20 792.96 A 1.65 1.26 18.9 0 0 61.72 793.74 Q 63.05 794.87 63.06 796.71 A 2.38 2.38 11.7 0 0 64.48 798.87 Q 67.57 800.24 68.30 804.04 Q 69.05 807.97 71.39 811.17 Q 71.66 811.54 71.77 812.06 Q 72.22 814.20 74.19 815.64 Q 75.12 816.32 75.79 817.25 Q 80.16 823.23 83.76 828.23 Q 84.30 828.98 86.63 833.18 Q 88.04 835.73 90.25 837.75 Q 92.18 839.52 91.94 842.06 Q 91.61 845.46 94.04 847.50 Q 94.44 847.84 94.61 848.28 Q 96.19 852.50 99.15 855.79 Q 101.35 858.23 102.31 860.10 Q 104.15 863.69 105.94 867.31 Q 108.31 872.11 114.19 878.47 Q 116.14 880.58 117.20 882.11 Q 119.16 884.94 119.50 886.25 Q 120.41 889.70 123.31 892.44 Q 128.96 897.77 132.68 905.31 Q 134.51 909.01 137.79 911.52 Q 138.18 911.81 138.39 912.27 Q 139.57 914.80 141.50 916.25 Q 149.11 921.96 154.25 929.00 Q 154.70 929.62 157.31 931.29 Q 157.62 931.49 160.31 933.63 Q 161.76 934.79 164.19 936.06 Q 167.74 937.93 170.94 943.39 Q 171.17 943.77 171.62 944.06 Q 172.97 944.93 175.31 947.44 Q 178.17 950.49 180.63 953.85 Q 182.52 956.44 185.35 957.60 Q 188.30 958.81 189.33 959.55 Q 192.48 961.79 195.59 964.09 Q 196.35 964.66 198.62 966.16 Q 200.16 967.17 201.56 968.35 Q 204.13 970.51 205.98 971.45 Q 211.06 974.02 216.35 976.10 Q 224.09 979.15 226.86 980.40 Q 236.86 984.89 246.91 989.26 Q 247.73 989.61 249.22 990.75 Q 250.37 991.62 251.74 991.98 Q 255.42 992.97 255.62 993.05 Q 262.54 995.98 279.19 1002.56 Q 282.04 1003.69 284.51 1003.97 Q 287.01 1004.26 288.69 1004.92 Q 290.53 1005.64 292.46 1006.14 Q 292.87 1006.25 295.40 1007.22 Q 296.65 1007.70 298.50 1008.00 Q 301.21 1008.44 304.69 1011.31 Q 305.29 1011.81 308.07 1013.13 Q 309.31 1013.72 311.73 1014.03 Q 313.36 1014.25 314.87 1014.92 Q 317.51 1016.10 317.86 1016.22 Q 320.25 1017.07 322.60 1018.04 Q 324.62 1018.88 326.97 1018.89 Q 334.22 1018.93 343.00 1021.25 Q 345.27 1021.85 346.37 1022.68 A 1.71 1.49 61.0 0 0 347.25 1023.00 Q 349.14 1023.08 352.25 1024.25 Q 360.26 1027.27 370.84 1028.88 Q 375.29 1029.55 379.99 1030.92 Q 386.18 1032.73 394.56 1034.44 Q 398.88 1035.32 403.74 1037.88 Q 405.34 1038.73 408.03 1039.37 Q 410.37 1039.94 413.69 1041.31 Q 420.57 1044.17 429.26 1047.83 Q 430.29 1048.26 431.40 1048.23 Q 432.97 1048.19 434.31 1049.94 Q 435.30 1051.23 438.04 1053.63 Q 439.31 1054.74 441.50 1055.48 Q 443.90 1056.29 445.05 1057.49 Q 446.37 1058.88 448.20 1059.45 Q 454.99 1061.58 459.10 1064.88 Q 461.44 1066.77 463.44 1067.90 Q 468.42 1070.72 472.01 1075.29 Q 472.32 1075.69 472.78 1075.88 Q 476.13 1077.24 477.94 1078.81 Q 480.14 1080.72 482.20 1081.41 A 1.62 1.39 -4.3 0 1 482.96 1081.97 Q 485.13 1085.18 488.56 1086.88 Q 489.75 1087.47 490.74 1088.44 Q 491.73 1089.41 492.89 1090.13 Q 494.99 1091.43 495.98 1092.61 Q 498.28 1095.34 500.67 1097.99 Q 501.94 1099.40 504.72 1101.57 Q 506.87 1103.25 508.69 1105.31 Q 509.51 1106.24 511.64 1106.86 Q 513.58 1107.43 514.70 1108.05 Q 523.40 1112.97 531.33 1119.04 Q 532.61 1120.02 534.59 1120.82 Q 536.33 1121.53 537.95 1122.54 Q 548.04 1128.87 560.60 1134.78 Q 561.65 1135.27 562.44 1136.12 Q 563.02 1136.73 564.39 1137.09 Q 565.66 1137.43 566.40 1137.77 Q 570.86 1139.84 575.57 1141.21 Q 575.78 1141.27 578.92 1142.49 Q 580.64 1143.16 582.54 1143.13 Q 584.41 1143.09 585.41 1143.37 Q 586.82 1143.76 588.20 1144.24 Q 590.08 1144.89 592.44 1145.11 Q 594.99 1145.35 597.43 1146.09 Q 600.31 1146.96 602.35 1146.99 Q 605.30 1147.03 608.25 1147.00 Q 608.71 1146.99 610.43 1147.61 Q 611.42 1147.96 612.63 1147.92 Q 614.60 1147.85 616.46 1148.36 Q 618.83 1149.02 620.16 1149.04 Q 630.17 1149.25 640.19 1149.06 Q 642.64 1149.02 646.00 1150.00 Q 647.32 1150.39 649.69 1149.67 Q 651.76 1149.05 653.28 1149.04 Q 657.35 1148.99 661.42 1148.99 Q 665.59 1148.99 669.48 1148.17 Q 673.87 1147.25 678.26 1146.30 Q 678.34 1146.28 681.63 1145.70 Q 684.45 1145.21 686.56 1144.06 Q 690.15 1142.12 691.73 1141.39 Q 692.18 1141.18 692.47 1140.78 Q 694.32 1138.20 697.07 1136.89 Q 700.18 1135.40 701.22 1134.63 Q 708.65 1129.18 714.25 1126.75 Q 718.95 1124.71 722.18 1122.46 Q 724.69 1120.71 726.84 1119.93 Q 733.19 1117.64 739.24 1114.68 Q 742.09 1113.29 745.62 1110.42 Q 749.21 1107.49 753.14 1105.03 Q 753.61 1104.73 756.51 1102.53 Q 758.08 1101.34 760.19 1100.44 Q 762.90 1099.28 764.93 1096.92 Q 766.86 1094.69 768.25 1093.81 Q 771.18 1091.94 774.22 1090.24 Q 776.22 1089.13 778.29 1087.12 Q 780.16 1085.31 782.31 1083.81 Q 783.94 1082.68 789.57 1076.76 Q 790.77 1075.50 792.78 1074.16 Q 794.71 1072.88 796.00 1071.50 Q 797.95 1069.41 800.21 1068.29 Q 802.76 1067.03 803.90 1066.07 Q 806.56 1063.82 809.39 1061.79 Q 811.54 1060.26 814.09 1057.61 Q 817.05 1054.53 820.75 1052.29 Q 814.95 1058.78 807.91 1063.86 Q 806.38 1064.96 804.03 1067.14 Q 801.88 1069.14 799.81 1070.06 Q 798.48 1070.66 797.79 1071.39 Q 796.74 1072.52 796.66 1072.58 Q 793.76 1074.86 790.81 1077.06 Q 788.72 1078.63 785.81 1083.31 Q 784.23 1085.87 779.38 1088.45 Q 778.95 1088.68 778.67 1089.10 Q 776.70 1092.08 773.56 1093.33 Q 769.65 1094.90 769.18 1095.21 Q 767.15 1096.56 765.50 1098.36 Q 764.03 1099.96 762.33 1100.80 Q 758.82 1102.54 757.56 1104.06 Q 754.26 1108.05 751.69 1109.19 Q 748.98 1110.38 747.46 1111.87 Q 745.49 1113.81 744.71 1114.24 Q 740.24 1116.71 735.36 1118.21 Q 732.22 1119.18 730.03 1120.63 Q 722.31 1125.74 717.31 1129.31 Q 715.51 1130.60 714.07 1132.46 Q 712.47 1134.53 710.97 1135.60 Q 704.46 1140.23 698.57 1145.63 Q 698.50 1145.69 696.66 1147.05 Q 695.21 1148.13 694.88 1149.86 Q 694.78 1150.39 695.34 1152.93 Q 695.75 1154.82 694.66 1156.19 Q 693.94 1157.10 692.02 1157.75 Q 683.55 1160.58 675.03 1163.28 Q 673.90 1163.64 670.37 1164.06 Q 667.87 1164.36 665.62 1165.67 Q 665.18 1165.93 664.69 1165.96 Q 662.03 1166.14 659.54 1167.02 Q 657.32 1167.80 655.82 1167.93 Q 654.53 1168.03 653.23 1168.11 Q 652.06 1168.19 650.66 1168.46 Q 646.75 1169.21 642.76 1169.11 Q 641.12 1169.06 638.86 1169.66 Q 636.87 1170.19 634.80 1170.02 Q 632.36 1169.83 631.18 1169.90 Q 629.95 1169.98 628.72 1170.00 Q 627.48 1170.02 626.29 1170.22 Q 617.94 1171.69 609.55 1170.63 Q 607.14 1170.33 604.46 1170.74 Q 599.16 1171.55 593.88 1170.66 Q 591.99 1170.34 589.21 1170.09 Q 587.63 1169.94 586.09 1169.59 Q 584.28 1169.18 582.98 1169.14 Q 574.24 1168.87 565.50 1169.00 Q 563.76 1169.03 558.81 1167.50 Q 555.70 1166.53 552.16 1166.09 Q 537.28 1164.23 524.34 1156.72 Q 522.94 1155.91 519.08 1154.07 Q 517.30 1153.22 515.66 1152.11 Q 513.75 1150.81 512.24 1150.16 Q 501.06 1145.34 490.54 1139.21 Q 488.75 1138.16 487.07 1136.10 Q 484.29 1132.67 481.31 1131.19 Q 477.55 1129.31 473.81 1127.39 Q 470.63 1125.75 466.78 1122.80 Q 463.11 1119.99 459.16 1117.57 Q 456.02 1115.65 454.40 1113.74 Q 453.06 1112.16 451.91 1110.44 Q 450.69 1108.60 449.07 1107.58 Q 439.75 1101.68 437.69 1100.81 Q 430.40 1097.74 425.31 1091.69 Q 423.92 1090.03 420.07 1087.67 Q 419.79 1087.50 416.17 1085.71 Q 414.19 1084.72 412.52 1083.29 Q 408.22 1079.59 408.17 1079.56 Q 405.71 1077.86 403.06 1076.44 Q 402.39 1076.08 399.25 1075.00 Q 396.31 1073.99 393.75 1072.21 Q 387.34 1067.75 380.61 1063.77 Q 378.57 1062.56 375.10 1061.37 Q 372.08 1060.34 369.56 1058.94 Q 367.70 1057.90 365.95 1057.27 Q 363.80 1056.48 362.45 1055.53 Q 358.88 1053.01 356.94 1052.06 Q 354.81 1051.03 353.32 1049.89 Q 351.20 1048.29 349.76 1047.81 Q 346.88 1046.86 343.95 1046.13 Q 343.40 1045.99 340.24 1045.07 Q 338.36 1044.52 336.42 1044.31 Q 332.36 1043.87 330.79 1043.46 Q 328.94 1042.97 327.09 1042.48 Q 325.29 1042.01 323.33 1042.05 Q 317.57 1042.18 311.81 1041.94 Q 311.01 1041.90 308.00 1041.50 Q 303.16 1040.85 298.28 1040.93 Q 296.74 1040.96 294.34 1040.35 Q 293.00 1040.01 291.62 1039.97 Q 290.22 1039.93 288.97 1039.54 Q 286.78 1038.87 284.47 1038.88 Q 282.41 1038.88 280.59 1038.45 Q 278.66 1037.99 276.66 1037.91 Q 274.56 1037.83 272.63 1037.13 Q 270.50 1036.35 268.25 1036.00 Q 267.29 1035.85 265.74 1035.07 Q 264.54 1034.47 263.25 1034.20 Q 259.97 1033.53 256.97 1032.00 Q 254.54 1030.76 251.82 1031.11 Q 248.39 1031.55 245.29 1030.29 Q 243.47 1029.55 241.68 1029.11 Q 239.78 1028.65 238.06 1027.69 Q 236.59 1026.86 230.79 1026.31 Q 226.55 1025.90 220.00 1023.25 Q 215.50 1021.43 213.05 1020.25 Q 211.16 1019.33 208.82 1018.93 Q 205.61 1018.37 202.70 1016.79 Q 201.56 1016.18 200.31 1016.00 Q 198.64 1015.77 197.94 1015.41 Q 196.26 1014.54 194.80 1013.33 Q 193.01 1011.84 191.77 1011.19 Q 180.79 1005.48 174.50 1003.00 Q 172.94 1002.39 172.03 1001.67 Q 170.18 1000.22 170.15 1000.20 Q 167.53 998.69 164.82 997.35 Q 158.68 994.31 156.56 990.94 Q 155.65 989.48 154.93 988.59 Q 154.23 987.73 152.65 986.95 Q 145.51 983.42 140.07 977.68 Q 138.31 975.82 135.80 974.05 Q 133.08 972.12 131.69 970.06 Q 129.38 966.65 127.64 965.10 Q 123.52 961.43 120.34 956.92 Q 118.56 954.39 116.52 952.07 Q 114.51 949.78 112.86 947.17 Q 110.65 943.69 107.94 940.56 Q 106.95 939.42 105.77 936.90 A 1.75 1.50 6.9 0 0 105.13 936.20 Q 103.35 935.12 102.39 932.76 Q 101.90 931.54 100.98 930.60 Q 98.49 928.04 97.07 924.45 Q 96.87 923.96 96.53 923.56 Q 91.08 917.18 89.08 912.35 Q 88.70 911.43 87.92 910.82 Q 81.48 905.83 79.56 899.19 Q 78.54 895.64 74.90 892.69 Q 72.39 890.66 71.35 889.06 Q 69.99 886.97 68.84 884.74 Q 67.70 882.55 65.98 880.75 Q 62.84 877.46 60.40 873.65 Q 55.65 866.24 55.62 866.20 Q 52.64 861.94 49.75 857.61 Q 48.88 856.31 47.53 852.95 Q 46.68 850.87 45.30 849.10 Q 43.42 846.69 42.77 845.49 Q 39.88 840.18 36.75 835.00 Q 33.97 830.41 31.13 824.84 Q 28.49 819.67 25.50 814.67 A 2.01 1.34 -69.7 0 1 25.28 813.75 Q 25.29 812.49 24.58 811.43 Q 22.84 808.83 22.30 805.74 Q 21.79 802.85 19.65 798.22 Q 19.24 797.33 19.25 796.34 Q 19.27 793.28 16.50 789.48 Q 16.11 788.95 15.87 787.83 L 14.95 783.71 Q 14.81 783.07 14.88 782.76 Q 15.18 781.29 14.50 779.94 Q 14.25 779.44 13.95 779.91 Q 13.06 781.29 13.72 782.86 A 1.42 1.19 -51.9 0 1 13.75 783.77 L 12.55 787.74 A 1.22 1.16 -77.6 0 1 11.27 788.60 Q 9.41 788.36 9.21 790.68 A 1.84 1.44 71.6 0 1 8.89 791.58 Q 7.06 794.04 5.80 796.80 Q 5.28 797.95 4.95 800.87 Q 4.78 802.43 4.18 803.87 Q 3.48 805.56 3.43 806.78 Q 2.64 823.63 2.29 840.50 Q 1.87 810.98 1.77 781.47 Q 1.77 781.38 1.59 763.55 Q 1.42 746.77 2.21 730.00 Z"/>
<path fill="rgb(82,95,107)" fill-opacity="1.000" d="M 387.29 805.75 L 382.04 810.50 Q 381.84 809.31 381.19 810.19 Q 379.84 811.99 378.44 811.69 Q 375.29 811.02 372.08 810.96 Q 369.23 810.91 367.49 810.50 Q 365.22 809.96 362.99 809.30 Q 361.49 808.85 359.99 809.14 A 1.35 1.24 -32.6 0 1 359.08 808.98 Q 356.29 807.25 353.00 807.03 A 1.92 1.67 61.8 0 1 352.10 806.69 Q 350.68 805.68 348.98 805.50 Q 346.18 805.21 346.05 805.18 Q 339.36 803.79 332.50 804.00 Q 330.79 804.05 327.81 802.94 Q 324.82 801.82 321.77 800.92 Q 319.69 800.30 315.54 799.53 Q 306.47 797.85 297.54 794.41 Q 296.22 793.90 294.81 794.02 Q 291.19 794.32 286.84 792.45 Q 285.58 791.91 284.21 792.06 Q 280.88 792.44 277.76 791.02 Q 274.44 789.52 273.00 789.08 Q 270.07 788.18 267.35 786.80 Q 264.13 785.17 261.77 784.45 Q 258.52 783.44 255.32 782.28 Q 255.26 782.26 250.96 780.26 Q 248.00 778.88 244.66 778.87 Q 242.19 778.86 240.45 778.31 Q 235.80 776.85 230.97 776.20 Q 229.76 776.04 227.62 775.45 Q 225.94 774.98 224.19 774.91 Q 220.62 774.76 219.39 774.40 Q 217.16 773.74 214.79 772.71 A 1.71 1.70 51.2 0 0 213.82 772.60 Q 208.08 773.66 201.24 772.13 Q 200.28 771.91 199.29 772.02 Q 196.75 772.32 194.25 771.25 Q 193.45 770.91 191.91 770.94 Q 190.65 770.96 189.62 770.73 Q 185.39 769.77 181.04 769.89 Q 178.77 769.95 177.02 769.54 Q 175.04 769.08 173.05 768.62 Q 171.51 768.25 169.92 768.48 Q 168.33 768.72 166.74 768.93 Q 166.27 769.00 165.79 768.81 Q 162.76 767.59 159.69 768.14 Q 155.32 768.92 155.24 768.92 Q 150.14 769.27 147.25 769.00 Q 144.85 768.78 142.91 769.28 Q 140.17 769.98 138.97 770.07 Q 136.12 770.27 133.40 771.07 Q 130.70 771.86 127.96 772.26 Q 120.53 773.35 115.09 778.47 Q 112.27 781.12 111.65 782.23 Q 110.33 784.58 111.51 787.76 Q 112.14 789.46 111.98 791.26 Q 111.73 793.97 113.17 796.25 Q 114.46 798.28 114.70 798.77 Q 115.35 800.11 116.08 801.40 Q 116.13 801.50 117.36 804.07 Q 118.31 806.06 120.05 807.51 Q 120.44 807.83 120.61 808.28 Q 123.37 815.74 129.31 820.99 A 1.54 1.47 -76.9 0 1 129.79 821.80 Q 131.04 827.77 134.44 831.81 Q 135.37 832.92 135.91 833.71 Q 136.72 834.92 137.35 835.60 Q 140.57 839.12 140.51 844.00 Q 140.51 844.52 140.73 844.93 Q 145.03 852.91 151.19 857.31 Q 154.95 860.00 156.66 862.40 A 2.07 1.31 -75.9 0 1 156.96 863.31 Q 157.14 865.68 159.19 867.56 Q 160.55 868.82 162.55 871.41 Q 163.66 872.85 166.10 874.94 Q 167.41 876.06 168.46 877.42 Q 169.40 878.63 170.77 879.86 Q 172.92 881.80 174.56 884.94 Q 176.94 889.48 182.34 893.15 Q 189.72 898.16 194.76 905.39 Q 196.72 908.20 197.99 909.41 Q 199.61 910.94 201.94 912.81 Q 206.41 916.41 213.24 923.73 Q 214.58 925.16 215.92 927.85 Q 217.37 930.75 219.62 933.08 Q 220.47 933.96 222.92 935.11 Q 224.85 936.02 226.32 937.69 Q 227.61 939.15 228.96 940.55 Q 230.05 941.70 231.88 943.07 Q 234.64 945.14 237.08 947.57 Q 239.78 950.26 242.13 951.58 Q 246.29 953.91 250.62 955.88 Q 255.20 957.95 259.00 960.32 Q 266.34 964.87 274.10 968.64 Q 275.94 969.53 278.03 971.43 Q 281.62 974.68 286.25 976.00 Q 288.24 976.57 289.86 977.30 Q 291.95 978.26 293.44 978.57 Q 299.21 979.78 304.86 981.45 Q 307.61 982.26 309.61 984.04 Q 312.55 986.66 315.11 989.68 A 1.99 1.61 -5.9 0 0 315.92 990.21 L 320.53 991.82 A 1.47 1.37 -43.6 0 0 321.47 991.81 Q 323.37 991.15 324.87 992.12 Q 326.83 993.39 326.95 993.45 Q 335.19 997.17 342.94 1001.85 Q 346.97 1004.27 350.18 1002.46 Q 351.86 1001.52 354.15 1002.02 L 360.75 1003.45 A 1.42 1.00 -4.2 0 1 361.53 1003.92 Q 363.32 1006.42 366.51 1006.29 Q 366.96 1006.27 367.46 1006.45 Q 368.59 1006.89 371.19 1007.31 Q 375.23 1007.97 379.66 1009.67 Q 380.61 1010.03 381.63 1010.02 Q 386.38 1009.97 390.09 1010.02 Q 391.82 1010.04 394.63 1010.91 Q 397.56 1011.81 401.00 1011.75 Q 405.29 1011.67 409.79 1013.55 Q 410.24 1013.74 410.74 1013.71 Q 412.52 1013.59 414.19 1014.05 Q 416.79 1014.78 417.94 1014.81 Q 420.11 1014.86 422.28 1014.84 Q 424.34 1014.83 426.44 1015.64 Q 429.28 1016.74 432.24 1017.44 Q 433.60 1017.77 436.94 1017.79 Q 439.35 1017.81 441.66 1018.50 Q 446.83 1020.05 446.96 1020.08 Q 455.19 1021.91 463.12 1024.80 Q 464.26 1025.22 466.52 1026.83 Q 468.18 1028.01 470.25 1028.48 Q 474.73 1029.49 478.11 1032.42 Q 479.27 1033.43 480.70 1034.12 Q 482.14 1034.82 483.41 1035.78 Q 486.23 1037.89 487.25 1038.45 Q 489.85 1039.89 492.45 1041.33 Q 493.06 1041.66 494.78 1042.31 Q 496.01 1042.76 497.05 1043.54 Q 499.37 1045.27 500.10 1045.67 Q 508.30 1050.14 513.78 1057.79 A 1.59 1.53 -6.6 0 0 514.53 1058.36 Q 522.22 1061.33 527.75 1067.20 Q 528.67 1068.18 532.07 1073.31 Q 534.96 1077.69 539.18 1080.82 Q 543.37 1083.95 543.77 1084.30 Q 547.07 1087.19 547.69 1088.56 Q 548.60 1090.59 551.44 1092.31 Q 553.08 1093.31 554.80 1096.02 Q 555.06 1096.42 555.50 1096.68 Q 557.42 1097.77 558.64 1099.50 A 3.19 3.16 80.9 0 0 560.24 1100.67 Q 564.04 1101.91 566.36 1103.69 Q 566.73 1103.98 567.24 1104.07 Q 569.21 1104.46 570.50 1106.15 Q 571.46 1107.40 572.96 1107.90 Q 576.13 1108.96 578.45 1110.52 Q 582.81 1113.43 583.22 1113.66 Q 586.90 1115.71 590.31 1118.19 Q 590.80 1118.54 593.06 1119.69 Q 598.43 1122.41 604.25 1124.00 Q 611.37 1125.95 614.91 1127.59 Q 615.78 1127.99 616.70 1128.09 Q 618.17 1128.25 618.56 1128.44 Q 624.54 1131.30 631.01 1132.63 Q 631.08 1132.64 634.95 1133.60 Q 638.02 1134.35 641.25 1134.00 Q 644.35 1133.66 648.25 1135.00 Q 655.92 1137.63 664.20 1135.31 Q 664.66 1135.18 666.35 1135.05 Q 667.54 1134.96 668.45 1134.17 A 1.68 1.23 -61.0 0 1 669.31 1133.77 Q 672.84 1133.42 681.00 1132.00 Q 683.81 1131.51 685.92 1130.76 Q 688.85 1129.73 690.77 1129.46 Q 695.20 1128.83 699.49 1127.47 Q 706.03 1125.39 712.60 1123.46 Q 714.25 1122.97 716.66 1121.44 Q 718.77 1120.11 721.24 1119.47 Q 722.14 1119.24 722.59 1118.51 A 1.38 0.60 -66.4 0 1 723.27 1117.88 L 731.00 1115.82 Q 731.60 1115.66 731.90 1115.45 Q 733.05 1114.61 734.37 1114.23 Q 737.17 1113.41 737.42 1113.30 Q 741.30 1111.55 744.75 1109.00 Q 745.80 1108.23 746.94 1107.19 Q 751.38 1103.14 756.61 1100.26 Q 759.17 1098.85 761.26 1096.90 Q 766.90 1091.66 773.82 1088.14 Q 775.98 1087.04 778.19 1084.44 Q 782.21 1079.70 788.78 1074.77 Q 791.52 1072.70 794.15 1070.50 Q 796.60 1068.44 799.80 1066.65 Q 804.19 1064.19 808.16 1061.08 Q 809.56 1059.98 812.55 1057.67 Q 814.95 1055.82 816.75 1054.00 Q 818.44 1052.29 820.24 1051.39 A 1.21 0.99 -8.4 0 0 820.85 1050.72 L 821.31 1049.18 Q 821.46 1048.68 821.80 1048.35 Q 823.24 1046.92 823.86 1044.98 A 1.83 1.53 83.4 0 1 824.38 1044.19 Q 828.62 1040.73 830.56 1035.56 Q 830.97 1034.47 831.25 1031.50 Q 831.59 1027.89 830.37 1024.54 A 1.40 1.39 4.4 0 0 829.74 1023.81 Q 823.30 1020.32 816.44 1023.19 Q 814.36 1024.05 812.35 1024.35 Q 809.65 1024.74 808.29 1025.29 Q 802.31 1027.71 796.33 1030.11 Q 794.62 1030.80 790.91 1032.86 Q 788.24 1034.34 785.30 1035.28 Q 781.95 1036.34 778.93 1038.06 Q 775.37 1040.08 773.26 1040.85 Q 770.28 1041.94 767.30 1043.02 Q 765.28 1043.75 763.77 1045.16 Q 761.70 1047.10 760.67 1047.69 Q 757.14 1049.70 753.62 1051.73 Q 752.31 1052.49 748.60 1055.09 Q 745.87 1057.01 743.25 1058.00 Q 733.56 1061.67 723.86 1065.31 Q 722.50 1065.82 720.41 1066.07 Q 718.64 1066.29 716.95 1066.82 Q 714.25 1067.65 711.90 1067.99 Q 709.96 1068.27 708.09 1068.85 Q 705.82 1069.55 704.33 1069.87 Q 701.83 1070.40 699.40 1071.17 Q 697.41 1071.81 694.46 1072.18 Q 691.79 1072.52 688.25 1073.50 Q 685.68 1074.21 676.63 1075.70 Q 673.44 1076.23 669.81 1076.08 Q 666.39 1075.95 662.96 1075.94 Q 661.26 1075.93 659.29 1075.25 Q 657.49 1074.63 655.63 1074.29 Q 651.94 1073.62 650.18 1072.90 Q 640.74 1069.05 632.04 1063.73 Q 628.33 1061.46 625.83 1058.09 Q 624.51 1056.32 621.33 1051.18 Q 618.36 1046.38 616.97 1040.93 Q 616.00 1037.11 616.00 1029.98 Q 615.99 1022.30 616.00 1014.62 Q 616.00 1013.73 616.37 1012.95 Q 616.74 1012.17 617.14 1011.40 Q 617.75 1010.22 617.77 1008.95 Q 617.86 1004.96 618.16 1000.98 Q 618.38 998.04 619.67 994.61 Q 622.41 987.32 623.25 980.75 Q 623.81 976.32 625.07 973.03 Q 625.75 971.24 626.05 969.45 Q 626.36 967.59 626.93 965.81 Q 627.99 962.52 628.30 960.42 Q 628.91 956.21 629.91 952.08 Q 631.09 947.23 631.68 943.82 Q 633.36 934.26 636.04 924.93 Q 636.73 922.53 637.13 919.61 Q 637.59 916.21 638.25 914.25 Q 638.90 912.32 639.13 910.77 Q 639.44 908.63 639.99 907.37 Q 641.11 904.78 641.95 902.09 Q 642.21 901.27 643.22 898.89 Q 643.91 897.28 644.14 895.53 Q 644.42 893.36 645.01 892.13 Q 646.24 889.59 646.75 889.00 Q 648.00 887.53 648.12 885.70 Q 648.30 883.00 648.48 882.35 Q 649.03 880.41 649.51 878.45 Q 650.79 873.29 648.39 869.02 Q 648.35 868.96 646.10 866.45 Q 644.47 864.63 644.98 861.86 A 1.31 1.31 4.2 0 0 643.64 860.31 Q 640.37 860.43 638.16 858.30 A 0.50 0.47 -45.0 0 1 638.18 857.60 Q 639.26 856.55 639.78 855.16 A 1.49 1.07 -12.0 0 1 640.40 854.48 Q 641.17 854.03 640.91 853.26 A 0.69 0.54 -12.9 0 0 640.19 852.92 Q 638.46 853.20 638.54 851.50 L 666.25 854.54 Q 667.26 858.70 668.79 862.68 Q 669.90 865.56 669.80 867.88 Q 669.60 872.39 668.28 876.76 Q 666.79 881.70 665.60 886.72 Q 664.38 891.91 662.72 896.58 Q 659.93 904.40 657.74 912.41 Q 657.37 913.73 657.09 916.55 Q 656.87 918.68 656.20 920.69 Q 654.29 926.38 654.26 926.47 Q 653.56 929.02 652.63 931.49 Q 651.98 933.24 651.81 935.80 Q 651.61 938.70 650.44 941.69 Q 648.61 946.35 648.10 951.75 Q 647.85 954.36 647.17 956.51 Q 646.02 960.12 646.00 961.25 Q 645.94 964.14 645.09 966.84 Q 644.21 969.64 644.05 971.70 Q 643.78 975.11 643.07 978.45 Q 642.26 982.25 641.79 985.12 Q 640.30 994.44 636.19 1003.44 Q 634.63 1006.86 634.56 1011.06 Q 634.55 1012.09 633.46 1015.71 Q 633.05 1017.06 632.62 1020.38 Q 632.38 1022.17 631.73 1023.86 Q 630.98 1025.83 630.94 1027.29 Q 630.79 1031.74 630.81 1036.19 A 1.83 1.18 38.5 0 0 631.11 1037.08 L 632.70 1039.62 A 1.65 0.95 -70.4 0 1 632.87 1040.55 Q 632.58 1043.51 635.44 1045.56 Q 645.46 1052.78 655.67 1056.25 Q 657.83 1056.99 660.43 1057.06 Q 662.88 1057.12 665.33 1057.20 Q 666.25 1057.22 668.63 1057.62 Q 670.29 1057.90 671.98 1057.76 Q 675.42 1057.48 675.54 1057.47 Q 686.08 1057.17 696.02 1053.57 Q 699.24 1052.40 707.25 1051.00 Q 716.24 1049.42 727.74 1046.17 Q 737.23 1043.49 746.48 1039.30 Q 757.40 1034.35 765.19 1029.94 Q 769.25 1027.64 772.26 1026.22 Q 777.50 1023.77 779.41 1022.74 Q 786.09 1019.15 792.31 1017.06 Q 795.15 1016.11 797.17 1015.12 Q 798.35 1014.53 800.53 1013.96 Q 801.99 1013.58 803.94 1012.69 Q 805.82 1011.83 810.41 1010.98 Q 812.29 1010.64 816.89 1009.54 Q 821.65 1008.41 826.54 1008.39 Q 829.23 1008.38 832.92 1009.12 Q 836.07 1009.74 839.21 1010.42 Q 840.86 1010.78 842.58 1012.12 A 1.47 1.45 -63.8 0 1 843.09 1013.65 Q 842.11 1017.38 842.76 1020.80 Q 843.26 1023.39 845.58 1024.90 A 1.28 1.27 -61.1 0 1 846.04 1026.50 Q 845.35 1028.03 844.93 1029.98 Q 844.39 1032.46 841.75 1032.71 L 838.74 1033.01 A 2.26 1.91 1.5 0 0 836.79 1034.57 Q 835.86 1039.08 832.44 1041.93 Q 827.40 1046.13 822.96 1050.95 Q 822.04 1051.95 820.75 1052.29 Q 817.05 1054.53 814.09 1057.61 Q 811.54 1060.26 809.39 1061.79 Q 806.56 1063.82 803.90 1066.07 Q 802.76 1067.03 800.21 1068.29 Q 797.95 1069.41 796.00 1071.50 Q 794.71 1072.88 792.78 1074.16 Q 790.77 1075.50 789.57 1076.76 Q 783.94 1082.68 782.31 1083.81 Q 780.16 1085.31 778.29 1087.12 Q 776.22 1089.13 774.22 1090.24 Q 771.18 1091.94 768.25 1093.81 Q 766.86 1094.69 764.93 1096.92 Q 762.90 1099.28 760.19 1100.44 Q 758.08 1101.34 756.51 1102.53 Q 753.61 1104.73 753.14 1105.03 Q 749.21 1107.49 745.62 1110.42 Q 742.09 1113.29 739.24 1114.68 Q 733.19 1117.64 726.84 1119.93 Q 724.69 1120.71 722.18 1122.46 Q 718.95 1124.71 714.25 1126.75 Q 708.65 1129.18 701.22 1134.63 Q 700.18 1135.40 697.07 1136.89 Q 694.32 1138.20 692.47 1140.78 Q 692.18 1141.18 691.73 1141.39 Q 690.15 1142.12 686.56 1144.06 Q 684.45 1145.21 681.63 1145.70 Q 678.34 1146.28 678.26 1146.30 Q 673.87 1147.25 669.48 1148.17 Q 665.59 1148.99 661.42 1148.99 Q 657.35 1148.99 653.28 1149.04 Q 651.76 1149.05 649.69 1149.67 Q 647.32 1150.39 646.00 1150.00 Q 642.64 1149.02 640.19 1149.06 Q 630.17 1149.25 620.16 1149.04 Q 618.83 1149.02 616.46 1148.36 Q 614.60 1147.85 612.63 1147.92 Q 611.42 1147.96 610.43 1147.61 Q 608.71 1146.99 608.25 1147.00 Q 605.30 1147.03 602.35 1146.99 Q 600.31 1146.96 597.43 1146.09 Q 594.99 1145.35 592.44 1145.11 Q 590.08 1144.89 588.20 1144.24 Q 586.82 1143.76 585.41 1143.37 Q 584.41 1143.09 582.54 1143.13 Q 580.64 1143.16 578.92 1142.49 Q 575.78 1141.27 575.57 1141.21 Q 570.86 1139.84 566.40 1137.77 Q 565.66 1137.43 564.39 1137.09 Q 563.02 1136.73 562.44 1136.12 Q 561.65 1135.27 560.60 1134.78 Q 548.04 1128.87 537.95 1122.54 Q 536.33 1121.53 534.59 1120.82 Q 532.61 1120.02 531.33 1119.04 Q 523.40 1112.97 514.70 1108.05 Q 513.58 1107.43 511.64 1106.86 Q 509.51 1106.24 508.69 1105.31 Q 506.87 1103.25 504.72 1101.57 Q 501.94 1099.40 500.67 1097.99 Q 498.28 1095.34 495.98 1092.61 Q 494.99 1091.43 492.89 1090.13 Q 491.73 1089.41 490.74 1088.44 Q 489.75 1087.47 488.56 1086.88 Q 485.13 1085.18 482.96 1081.97 A 1.62 1.39 -4.3 0 0 482.20 1081.41 Q 480.14 1080.72 477.94 1078.81 Q 476.13 1077.24 472.78 1075.88 Q 472.32 1075.69 472.01 1075.29 Q 468.42 1070.72 463.44 1067.90 Q 461.44 1066.77 459.10 1064.88 Q 454.99 1061.58 448.20 1059.45 Q 446.37 1058.88 445.05 1057.49 Q 443.90 1056.29 441.50 1055.48 Q 439.31 1054.74 438.04 1053.63 Q 435.30 1051.23 434.31 1049.94 Q 432.97 1048.19 431.40 1048.23 Q 430.29 1048.26 429.26 1047.83 Q 420.57 1044.17 413.69 1041.31 Q 410.37 1039.94 408.03 1039.37 Q 405.34 1038.73 403.74 1037.88 Q 398.88 1035.32 394.56 1034.44 Q 386.18 1032.73 379.99 1030.92 Q 375.29 1029.55 370.84 1028.88 Q 360.26 1027.27 352.25 1024.25 Q 349.14 1023.08 347.25 1023.00 A 1.71 1.49 61.0 0 1 346.37 1022.68 Q 345.27 1021.85 343.00 1021.25 Q 334.22 1018.93 326.97 1018.89 Q 324.62 1018.88 322.60 1018.04 Q 320.25 1017.07 317.86 1016.22 Q 317.51 1016.10 314.87 1014.92 Q 313.36 1014.25 311.73 1014.03 Q 309.31 1013.72 308.07 1013.13 Q 305.29 1011.81 304.69 1011.31 Q 301.21 1008.44 298.50 1008.00 Q 296.65 1007.70 295.40 1007.22 Q 292.87 1006.25 292.46 1006.14 Q 290.53 1005.64 288.69 1004.92 Q 287.01 1004.26 284.51 1003.97 Q 282.04 1003.69 279.19 1002.56 Q 262.54 995.98 255.62 993.05 Q 255.42 992.97 251.74 991.98 Q 250.37 991.62 249.22 990.75 Q 247.73 989.61 246.91 989.26 Q 236.86 984.89 226.86 980.40 Q 224.09 979.15 216.35 976.10 Q 211.06 974.02 205.98 971.45 Q 204.13 970.51 201.56 968.35 Q 200.16 967.17 198.62 966.16 Q 196.35 964.66 195.59 964.09 Q 192.48 961.79 189.33 959.55 Q 188.30 958.81 185.35 957.60 Q 182.52 956.44 180.63 953.85 Q 178.17 950.49 175.31 947.44 Q 172.97 944.93 171.62 944.06 Q 171.17 943.77 170.94 943.39 Q 167.74 937.93 164.19 936.06 Q 161.76 934.79 160.31 933.63 Q 157.62 931.49 157.31 931.29 Q 154.70 929.62 154.25 929.00 Q 149.11 921.96 141.50 916.25 Q 139.57 914.80 138.39 912.27 Q 138.18 911.81 137.79 911.52 Q 134.51 909.01 132.68 905.31 Q 128.96 897.77 123.31 892.44 Q 120.41 889.70 119.50 886.25 Q 119.16 884.94 117.20 882.11 Q 116.14 880.58 114.19 878.47 Q 108.31 872.11 105.94 867.31 Q 104.15 863.69 102.31 860.10 Q 101.35 858.23 99.15 855.79 Q 96.19 852.50 94.61 848.28 Q 94.44 847.84 94.04 847.50 Q 91.61 845.46 91.94 842.06 Q 92.18 839.52 90.25 837.75 Q 88.04 835.73 86.63 833.18 Q 84.30 828.98 83.76 828.23 Q 80.16 823.23 75.79 817.25 Q 75.12 816.32 74.19 815.64 Q 72.22 814.20 71.77 812.06 Q 71.66 811.54 71.39 811.17 Q 69.05 807.97 68.30 804.04 Q 67.57 800.24 64.48 798.87 A 2.38 2.38 11.7 0 1 63.06 796.71 Q 63.05 794.87 61.72 793.74 A 1.65 1.26 18.9 0 1 61.20 792.96 Q 60.37 789.51 58.82 786.35 Q 57.16 782.96 56.96 780.96 Q 56.42 775.73 58.50 771.10 Q 60.23 767.24 64.34 764.61 Q 68.45 761.98 73.56 760.31 Q 88.33 755.50 102.90 755.05 Q 104.81 754.99 108.04 754.39 Q 109.75 754.08 111.50 754.01 Q 113.30 753.94 114.89 753.44 Q 118.29 752.38 121.84 752.09 Q 122.44 752.04 125.07 752.53 Q 126.25 752.75 127.43 752.42 Q 128.90 752.00 129.66 752.00 Q 141.01 752.00 152.35 752.00 Q 155.15 752.00 162.10 752.69 Q 167.29 753.20 173.75 753.00 Q 177.81 752.87 182.68 754.16 Q 185.77 754.98 188.45 754.95 Q 193.68 754.91 198.91 755.14 Q 200.99 755.24 203.02 755.75 Q 204.37 756.10 205.72 756.45 Q 206.98 756.79 208.46 756.78 Q 212.81 756.75 217.05 757.75 Q 235.97 762.23 241.75 764.50 Q 246.64 766.42 251.57 768.22 Q 253.72 769.01 261.56 771.35 Q 268.15 773.32 274.39 776.27 Q 279.55 778.71 284.50 779.25 Q 287.40 779.57 289.50 780.75 Q 292.94 782.69 304.77 785.67 Q 322.35 790.09 326.25 791.25 Q 328.93 792.05 331.43 792.09 Q 333.37 792.13 335.46 792.66 Q 337.66 793.22 340.00 793.03 Q 341.94 792.86 343.75 793.36 Q 345.95 793.96 347.36 793.91 Q 355.86 793.61 364.11 795.51 Q 366.04 795.96 369.98 796.30 Q 375.12 796.75 379.52 799.69 Q 383.17 802.14 384.81 802.94 Q 386.00 803.52 387.44 803.38 A 0.32 0.28 -85.8 0 1 387.73 803.77 L 387.29 805.75 Z"/>
<path fill="rgb(76,88,100)" fill-opacity="1.000" d="M 382.04 810.50 Q 372.74 819.70 360.81 828.81 Q 352.26 835.35 342.30 837.74 Q 340.88 838.09 334.65 838.93 Q 330.68 839.48 327.01 840.38 Q 325.22 840.81 324.70 842.58 Q 322.73 849.25 322.28 855.50 Q 320.63 878.35 320.99 901.25 Q 321.42 929.61 321.75 935.75 Q 322.77 954.99 324.06 962.44 Q 326.25 975.07 331.52 986.74 Q 336.52 997.82 347.92 999.09 Q 351.72 999.51 354.23 997.77 Q 357.15 995.74 358.20 992.06 Q 358.90 989.60 358.94 989.48 Q 361.20 982.97 363.73 976.75 A 1.29 1.28 -67.1 0 1 365.42 976.06 Q 373.61 979.54 381.85 982.86 Q 388.63 985.59 393.75 984.50 Q 399.40 983.30 401.44 979.69 Q 403.04 976.84 404.04 969.22 Q 405.91 954.88 407.50 940.49 A 0.92 0.92 85.9 0 1 408.18 939.70 Q 411.37 938.86 414.79 938.20 Q 418.87 937.42 422.53 935.63 Q 426.85 933.52 428.22 930.52 Q 430.11 926.38 426.56 921.94 Q 423.86 918.56 415.21 913.28 Q 390.55 898.24 372.56 875.69 Q 370.35 872.91 370.71 869.98 Q 370.97 867.89 373.44 865.23 Q 382.94 854.99 394.97 847.87 Q 400.77 844.44 400.83 844.40 Q 405.67 841.44 410.56 838.56 Q 412.64 837.34 413.75 837.21 Q 418.03 837.91 429.25 840.50 Q 439.23 842.80 451.76 843.60 Q 458.98 844.07 471.75 844.41 Q 484.47 844.75 503.00 844.50 Q 528.39 844.16 539.00 843.75 Q 549.61 843.34 559.04 843.76 Q 574.29 844.43 574.47 844.43 Q 592.46 845.04 609.50 847.25 Q 621.50 848.81 638.54 851.50 Q 638.46 853.20 640.19 852.92 A 0.69 0.54 -12.9 0 1 640.91 853.26 Q 641.17 854.03 640.40 854.48 A 1.49 1.07 -12.0 0 0 639.78 855.16 Q 639.26 856.55 638.18 857.60 A 0.50 0.47 -45.0 0 0 638.16 858.30 Q 640.37 860.43 643.64 860.31 A 1.31 1.31 4.2 0 1 644.98 861.86 Q 644.47 864.63 646.10 866.45 Q 648.35 868.96 648.39 869.02 Q 650.79 873.29 649.51 878.45 Q 649.03 880.41 648.48 882.35 Q 648.30 883.00 648.12 885.70 Q 648.00 887.53 646.75 889.00 Q 646.24 889.59 645.01 892.13 Q 644.42 893.36 644.14 895.53 Q 643.91 897.28 643.22 898.89 Q 642.21 901.27 641.95 902.09 Q 641.11 904.78 639.99 907.37 Q 639.44 908.63 639.13 910.77 Q 638.90 912.32 638.25 914.25 Q 637.59 916.21 637.13 919.61 Q 636.73 922.53 636.04 924.93 Q 633.36 934.26 631.68 943.82 Q 631.09 947.23 629.91 952.08 Q 628.91 956.21 628.30 960.42 Q 627.99 962.52 626.93 965.81 Q 626.36 967.59 626.05 969.45 Q 625.75 971.24 625.07 973.03 Q 623.81 976.32 623.25 980.75 Q 622.41 987.32 619.67 994.61 Q 618.38 998.04 618.16 1000.98 Q 617.86 1004.96 617.77 1008.95 Q 617.75 1010.22 617.14 1011.40 Q 616.74 1012.17 616.37 1012.95 Q 616.00 1013.73 616.00 1014.62 Q 615.99 1022.30 616.00 1029.98 Q 616.00 1037.11 616.97 1040.93 Q 618.36 1046.38 621.33 1051.18 Q 624.51 1056.32 625.83 1058.09 Q 628.33 1061.46 632.04 1063.73 Q 640.74 1069.05 650.18 1072.90 Q 651.94 1073.62 655.63 1074.29 Q 657.49 1074.63 659.29 1075.25 Q 661.26 1075.93 662.96 1075.94 Q 666.39 1075.95 669.81 1076.08 Q 673.44 1076.23 676.63 1075.70 Q 685.68 1074.21 688.25 1073.50 Q 691.79 1072.52 694.46 1072.18 Q 697.41 1071.81 699.40 1071.17 Q 701.83 1070.40 704.33 1069.87 Q 705.82 1069.55 708.09 1068.85 Q 709.96 1068.27 711.90 1067.99 Q 714.25 1067.65 716.95 1066.82 Q 718.64 1066.29 720.41 1066.07 Q 722.50 1065.82 723.86 1065.31 Q 733.56 1061.67 743.25 1058.00 Q 745.87 1057.01 748.60 1055.09 Q 752.31 1052.49 753.62 1051.73 Q 757.14 1049.70 760.67 1047.69 Q 761.70 1047.10 763.77 1045.16 Q 765.28 1043.75 767.30 1043.02 Q 770.28 1041.94 773.26 1040.85 Q 775.37 1040.08 778.93 1038.06 Q 781.95 1036.34 785.30 1035.28 Q 788.24 1034.34 790.91 1032.86 Q 794.62 1030.80 796.33 1030.11 Q 802.31 1027.71 808.29 1025.29 Q 809.65 1024.74 812.35 1024.35 Q 814.36 1024.05 816.44 1023.19 Q 823.30 1020.32 829.74 1023.81 A 1.40 1.39 4.4 0 1 830.37 1024.54 Q 831.59 1027.89 831.25 1031.50 Q 830.97 1034.47 830.56 1035.56 Q 828.62 1040.73 824.38 1044.19 A 1.83 1.53 83.4 0 0 823.86 1044.98 Q 823.24 1046.92 821.80 1048.35 Q 821.46 1048.68 821.31 1049.18 L 820.85 1050.72 A 1.21 0.99 -8.4 0 1 820.24 1051.39 Q 818.44 1052.29 816.75 1054.00 Q 814.95 1055.82 812.55 1057.67 Q 809.56 1059.98 808.16 1061.08 Q 804.19 1064.19 799.80 1066.65 Q 796.60 1068.44 794.15 1070.50 Q 791.52 1072.70 788.78 1074.77 Q 782.21 1079.70 778.19 1084.44 Q 775.98 1087.04 773.82 1088.14 Q 766.90 1091.66 761.26 1096.90 Q 759.17 1098.85 756.61 1100.26 Q 751.38 1103.14 746.94 1107.19 Q 745.80 1108.23 744.75 1109.00 Q 741.30 1111.55 737.42 1113.30 Q 737.17 1113.41 734.37 1114.23 Q 733.05 1114.61 731.90 1115.45 Q 731.60 1115.66 731.00 1115.82 L 723.27 1117.88 A 1.38 0.60 -66.4 0 0 722.59 1118.51 Q 722.14 1119.24 721.24 1119.47 Q 718.77 1120.11 716.66 1121.44 Q 714.25 1122.97 712.60 1123.46 Q 706.03 1125.39 699.49 1127.47 Q 695.20 1128.83 690.77 1129.46 Q 688.85 1129.73 685.92 1130.76 Q 683.81 1131.51 681.00 1132.00 Q 672.84 1133.42 669.31 1133.77 A 1.68 1.23 -61.0 0 0 668.45 1134.17 Q 667.54 1134.96 666.35 1135.05 Q 664.66 1135.18 664.20 1135.31 Q 655.92 1137.63 648.25 1135.00 Q 644.35 1133.66 641.25 1134.00 Q 638.02 1134.35 634.95 1133.60 Q 631.08 1132.64 631.01 1132.63 Q 624.54 1131.30 618.56 1128.44 Q 618.17 1128.25 616.70 1128.09 Q 615.78 1127.99 614.91 1127.59 Q 611.37 1125.95 604.25 1124.00 Q 598.43 1122.41 593.06 1119.69 Q 590.80 1118.54 590.31 1118.19 Q 586.90 1115.71 583.22 1113.66 Q 582.81 1113.43 578.45 1110.52 Q 576.13 1108.96 572.96 1107.90 Q 571.46 1107.40 570.50 1106.15 Q 569.21 1104.46 567.24 1104.07 Q 566.73 1103.98 566.36 1103.69 Q 564.04 1101.91 560.24 1100.67 A 3.19 3.16 80.9 0 1 558.64 1099.50 Q 557.42 1097.77 555.50 1096.68 Q 555.06 1096.42 554.80 1096.02 Q 553.08 1093.31 551.44 1092.31 Q 548.60 1090.59 547.69 1088.56 Q 547.07 1087.19 543.77 1084.30 Q 543.37 1083.95 539.18 1080.82 Q 534.96 1077.69 532.07 1073.31 Q 528.67 1068.18 527.75 1067.20 Q 522.22 1061.33 514.53 1058.36 A 1.59 1.53 -6.6 0 1 513.78 1057.79 Q 508.30 1050.14 500.10 1045.67 Q 499.37 1045.27 497.05 1043.54 Q 496.01 1042.76 494.78 1042.31 Q 493.06 1041.66 492.45 1041.33 Q 489.85 1039.89 487.25 1038.45 Q 486.23 1037.89 483.41 1035.78 Q 482.14 1034.82 480.70 1034.12 Q 479.27 1033.43 478.11 1032.42 Q 474.73 1029.49 470.25 1028.48 Q 468.18 1028.01 466.52 1026.83 Q 464.26 1025.22 463.12 1024.80 Q 455.19 1021.91 446.96 1020.08 Q 446.83 1020.05 441.66 1018.50 Q 439.35 1017.81 436.94 1017.79 Q 433.60 1017.77 432.24 1017.44 Q 429.28 1016.74 426.44 1015.64 Q 424.34 1014.83 422.28 1014.84 Q 420.11 1014.86 417.94 1014.81 Q 416.79 1014.78 414.19 1014.05 Q 412.52 1013.59 410.74 1013.71 Q 410.24 1013.74 409.79 1013.55 Q 405.29 1011.67 401.00 1011.75 Q 397.56 1011.81 394.63 1010.91 Q 391.82 1010.04 390.09 1010.02 Q 386.38 1009.97 381.63 1010.02 Q 380.61 1010.03 379.66 1009.67 Q 375.23 1007.97 371.19 1007.31 Q 368.59 1006.89 367.46 1006.45 Q 366.96 1006.27 366.51 1006.29 Q 363.32 1006.42 361.53 1003.92 A 1.42 1.00 -4.2 0 0 360.75 1003.45 L 354.15 1002.02 Q 351.86 1001.52 350.18 1002.46 Q 346.97 1004.27 342.94 1001.85 Q 335.19 997.17 326.95 993.45 Q 326.83 993.39 324.87 992.12 Q 323.37 991.15 321.47 991.81 A 1.47 1.37 -43.6 0 1 320.53 991.82 L 315.92 990.21 A 1.99 1.61 -5.9 0 1 315.11 989.68 Q 312.55 986.66 309.61 984.04 Q 307.61 982.26 304.86 981.45 Q 299.21 979.78 293.44 978.57 Q 291.95 978.26 289.86 977.30 Q 288.24 976.57 286.25 976.00 Q 281.62 974.68 278.03 971.43 Q 275.94 969.53 274.10 968.64 Q 266.34 964.87 259.00 960.32 Q 255.20 957.95 250.62 955.88 Q 246.29 953.91 242.13 951.58 Q 239.78 950.26 237.08 947.57 Q 234.64 945.14 231.88 943.07 Q 230.05 941.70 228.96 940.55 Q 227.61 939.15 226.32 937.69 Q 224.85 936.02 222.92 935.11 Q 220.47 933.96 219.62 933.08 Q 217.37 930.75 215.92 927.85 Q 214.58 925.16 213.24 923.73 Q 206.41 916.41 201.94 912.81 Q 199.61 910.94 197.99 909.41 Q 196.72 908.20 194.76 905.39 Q 189.72 898.16 182.34 893.15 Q 176.94 889.48 174.56 884.94 Q 172.92 881.80 170.77 879.86 Q 169.40 878.63 168.46 877.42 Q 167.41 876.06 166.10 874.94 Q 163.66 872.85 162.55 871.41 Q 160.55 868.82 159.19 867.56 Q 157.14 865.68 156.96 863.31 A 2.07 1.31 -75.9 0 0 156.66 862.40 Q 154.95 860.00 151.19 857.31 Q 145.03 852.91 140.73 844.93 Q 140.51 844.52 140.51 844.00 Q 140.57 839.12 137.35 835.60 Q 136.72 834.92 135.91 833.71 Q 135.37 832.92 134.44 831.81 Q 131.04 827.77 129.79 821.80 A 1.54 1.47 -76.9 0 0 129.31 820.99 Q 123.37 815.74 120.61 808.28 Q 120.44 807.83 120.05 807.51 Q 118.31 806.06 117.36 804.07 Q 116.13 801.50 116.08 801.40 Q 115.35 800.11 114.70 798.77 Q 114.46 798.28 113.17 796.25 Q 111.73 793.97 111.98 791.26 Q 112.14 789.46 111.51 787.76 Q 110.33 784.58 111.65 782.23 Q 112.27 781.12 115.09 778.47 Q 120.53 773.35 127.96 772.26 Q 130.70 771.86 133.40 771.07 Q 136.12 770.27 138.97 770.07 Q 140.17 769.98 142.91 769.28 Q 144.85 768.78 147.25 769.00 Q 150.14 769.27 155.24 768.92 Q 155.32 768.92 159.69 768.14 Q 162.76 767.59 165.79 768.81 Q 166.27 769.00 166.74 768.93 Q 168.33 768.72 169.92 768.48 Q 171.51 768.25 173.05 768.62 Q 175.04 769.08 177.02 769.54 Q 178.77 769.95 181.04 769.89 Q 185.39 769.77 189.62 770.73 Q 190.65 770.96 191.91 770.94 Q 193.45 770.91 194.25 771.25 Q 196.75 772.32 199.29 772.02 Q 200.28 771.91 201.24 772.13 Q 208.08 773.66 213.82 772.60 A 1.71 1.70 51.2 0 1 214.79 772.71 Q 217.16 773.74 219.39 774.40 Q 220.62 774.76 224.19 774.91 Q 225.94 774.98 227.62 775.45 Q 229.76 776.04 230.97 776.20 Q 235.80 776.85 240.45 778.31 Q 242.19 778.86 244.66 778.87 Q 248.00 778.88 250.96 780.26 Q 255.26 782.26 255.32 782.28 Q 258.52 783.44 261.77 784.45 Q 264.13 785.17 267.35 786.80 Q 270.07 788.18 273.00 789.08 Q 274.44 789.52 277.76 791.02 Q 280.88 792.44 284.21 792.06 Q 285.58 791.91 286.84 792.45 Q 291.19 794.32 294.81 794.02 Q 296.22 793.90 297.54 794.41 Q 306.47 797.85 315.54 799.53 Q 319.69 800.30 321.77 800.92 Q 324.82 801.82 327.81 802.94 Q 330.79 804.05 332.50 804.00 Q 339.36 803.79 346.05 805.18 Q 346.18 805.21 348.98 805.50 Q 350.68 805.68 352.10 806.69 A 1.92 1.67 61.8 0 0 353.00 807.03 Q 356.29 807.25 359.08 808.98 A 1.35 1.24 -32.6 0 0 359.99 809.14 Q 361.49 808.85 362.99 809.30 Q 365.22 809.96 367.49 810.50 Q 369.23 810.91 372.08 810.96 Q 375.29 811.02 378.44 811.69 Q 379.84 811.99 381.19 810.19 Q 381.84 809.31 382.04 810.50 Z"/>
<path fill="rgb(254,159,61)" fill-opacity="1.000" d="M 389.00 804.71 Q 395.52 825.46 413.75 837.21 Q 412.64 837.34 410.56 838.56 Q 405.67 841.44 400.83 844.40 Q 400.77 844.44 394.97 847.87 Q 382.94 854.99 373.44 865.23 Q 370.97 867.89 370.71 869.98 Q 370.35 872.91 372.56 875.69 Q 390.55 898.24 415.21 913.28 Q 423.86 918.56 426.56 921.94 Q 430.11 926.38 428.22 930.52 Q 426.85 933.52 422.53 935.63 Q 418.87 937.42 414.79 938.20 Q 411.37 938.86 408.18 939.70 A 0.92 0.92 85.9 0 0 407.50 940.49 Q 405.91 954.88 404.04 969.22 Q 403.04 976.84 401.44 979.69 Q 399.40 983.30 393.75 984.50 Q 388.63 985.59 381.85 982.86 Q 373.61 979.54 365.42 976.06 A 1.29 1.28 -67.1 0 0 363.73 976.75 Q 361.20 982.97 358.94 989.48 Q 358.90 989.60 358.20 992.06 Q 357.15 995.74 354.23 997.77 Q 351.72 999.51 347.92 999.09 Q 336.52 997.82 331.52 986.74 Q 326.25 975.07 324.06 962.44 Q 322.77 954.99 321.75 935.75 Q 321.42 929.61 320.99 901.25 Q 320.63 878.35 322.28 855.50 Q 322.73 849.25 324.70 842.58 Q 325.22 840.81 327.01 840.38 Q 330.68 839.48 334.65 838.93 Q 340.88 838.09 342.30 837.74 Q 352.26 835.35 360.81 828.81 Q 372.74 819.70 382.04 810.50 L 387.29 805.75 L 389.00 804.71 Z"/>
<path fill="rgb(254,160,63)" fill-opacity="1.000" d="M 778.75 840.96 Q 781.77 841.40 782.25 841.75 Q 785.21 843.93 788.69 847.56 Q 794.25 853.37 803.49 862.27 Q 825.70 883.69 855.00 893.50 Q 865.72 897.09 876.55 900.33 Q 901.78 907.87 922.69 917.56 Q 924.46 918.38 926.29 920.11 Q 928.02 921.74 928.91 923.59 Q 930.98 927.90 929.15 931.96 Q 927.74 935.11 923.82 937.58 Q 918.39 941.01 911.74 941.67 Q 907.11 942.14 902.82 942.71 A 1.00 1.00 -11.9 0 0 901.99 943.98 Q 903.80 950.10 906.33 955.93 Q 908.98 962.02 906.68 967.01 Q 904.72 971.25 899.16 973.65 Q 892.71 976.44 884.44 976.31 Q 872.40 976.13 860.38 975.37 Q 859.49 975.32 858.51 975.42 Q 857.36 975.54 856.62 975.55 A 2.29 2.28 6.9 0 0 854.45 977.25 Q 853.53 980.71 852.43 983.77 Q 851.10 987.46 849.14 989.67 Q 843.76 995.76 835.25 995.25 Q 828.92 994.87 825.11 988.86 Q 820.93 982.28 817.40 975.33 Q 799.92 940.89 795.69 933.06 Q 787.67 918.22 782.52 904.98 Q 781.41 902.15 779.72 895.32 Q 778.33 889.71 775.99 884.44 Q 774.12 880.23 770.16 874.61 Q 761.87 862.83 753.04 851.45 Q 752.05 850.17 752.25 848.54 L 778.75 840.96 Z"/>
<path fill="rgb(88,102,112)" fill-opacity="1.000" d="M 666.25 854.54 L 684.71 854.75 Q 684.03 855.16 684.58 855.35 Q 684.80 855.43 684.57 855.44 Q 683.25 855.47 683.81 856.02 A 1.13 0.73 32.9 0 1 684.16 856.80 L 683.90 859.42 Q 683.68 861.64 685.71 861.95 Q 688.26 862.35 689.34 864.22 Q 690.70 866.59 692.19 871.08 A 1.34 1.32 57.8 0 1 691.89 872.43 Q 690.34 874.08 690.02 875.52 Q 689.63 877.24 689.61 877.30 Q 688.96 878.94 688.15 880.52 Q 687.30 882.17 686.92 883.79 Q 684.82 892.69 680.99 901.00 Q 680.20 902.70 680.07 904.54 Q 679.98 905.77 679.87 907.00 Q 679.76 908.22 679.05 909.27 Q 676.70 912.77 675.44 915.37 Q 674.85 916.61 674.17 918.85 L 670.23 931.98 Q 670.19 932.12 670.21 931.96 L 670.60 928.30 Q 670.69 927.41 670.40 928.29 Q 668.04 935.48 665.32 942.54 Q 665.25 942.73 662.59 948.10 Q 661.01 951.29 660.72 954.94 Q 660.69 955.31 660.44 955.86 Q 659.97 956.84 660.00 958.75 Q 660.08 964.65 658.15 972.25 Q 657.25 975.78 656.90 978.87 Q 656.52 982.22 656.03 985.56 Q 655.60 988.46 654.50 991.41 Q 653.45 994.23 652.37 997.13 Q 651.91 998.36 651.98 999.67 Q 652.10 1001.81 650.94 1003.19 Q 648.88 1005.62 649.50 1007.50 Q 649.95 1008.88 649.32 1010.13 Q 649.08 1010.60 649.10 1011.07 Q 649.25 1014.21 647.33 1016.61 A 1.38 1.29 -28.3 0 0 647.03 1017.50 Q 647.11 1019.99 646.19 1021.69 Q 645.30 1023.33 644.79 1024.52 Q 644.19 1025.91 644.66 1027.52 Q 645.50 1030.38 646.69 1032.91 A 0.51 0.51 -36.1 0 0 647.53 1033.04 Q 649.07 1031.35 649.66 1032.35 Q 650.00 1032.92 650.05 1032.98 Q 655.80 1039.88 664.99 1040.25 Q 665.47 1040.27 665.94 1040.37 Q 670.87 1041.47 674.13 1040.89 Q 677.74 1040.24 678.47 1040.17 Q 681.45 1039.90 684.25 1038.75 Q 685.36 1038.29 688.73 1037.80 Q 691.03 1037.47 693.16 1036.74 Q 698.51 1034.91 704.01 1033.55 Q 704.17 1033.51 706.53 1033.36 Q 707.92 1033.28 708.95 1032.21 Q 711.04 1030.05 714.94 1028.69 Q 716.39 1028.18 718.01 1026.79 Q 719.68 1025.36 720.93 1024.79 Q 724.23 1023.28 725.75 1023.25 Q 727.74 1023.21 731.75 1022.25 Q 732.41 1022.09 731.87 1022.02 Q 731.75 1022.00 731.83 1021.90 Q 733.70 1019.70 736.25 1018.58 Q 739.56 1017.12 740.60 1016.47 Q 742.76 1015.13 745.06 1014.03 Q 747.64 1012.80 748.66 1012.03 Q 750.32 1010.79 751.69 1009.19 Q 752.94 1007.73 755.25 1008.00 Q 758.80 1008.42 761.84 1006.66 Q 763.81 1005.53 766.58 1006.55 A 2.54 2.52 46.2 0 0 768.19 1006.59 Q 770.05 1006.01 771.61 1005.31 Q 772.48 1004.92 774.62 1003.28 Q 776.86 1001.56 779.75 1000.99 Q 782.68 1000.41 785.31 999.00 A 1.39 1.32 34.9 0 1 786.24 998.86 Q 788.63 999.31 791.25 998.25 Q 794.65 996.88 798.60 997.07 Q 798.73 997.08 802.28 997.95 Q 804.67 998.54 807.44 997.44 Q 810.02 996.41 813.00 998.00 Q 814.32 998.71 817.12 999.05 Q 818.50 999.22 821.32 999.74 Q 825.31 1000.47 830.00 999.75 Q 832.30 999.39 834.97 999.96 Q 838.42 1000.69 839.08 1000.77 Q 841.17 1001.03 843.27 1001.25 Q 844.75 1001.41 848.23 1001.28 Q 850.93 1001.19 853.25 1001.75 Q 855.71 1002.35 856.88 1004.48 Q 857.31 1005.26 857.75 1007.62 Q 858.06 1009.24 858.56 1010.81 Q 859.28 1013.08 858.68 1014.34 Q 857.82 1016.15 855.67 1016.90 Q 853.78 1017.56 855.85 1017.35 Q 856.17 1017.32 855.89 1017.45 Q 847.85 1021.23 855.09 1026.46 A 1.08 0.65 27.8 0 1 855.57 1027.25 Q 855.51 1027.73 854.81 1027.69 Q 852.04 1027.53 849.81 1029.36 A 1.70 1.05 88.0 0 0 849.35 1030.17 Q 848.93 1031.82 847.06 1031.69 A 3.69 1.90 15.3 0 0 844.69 1032.19 Q 843.36 1033.23 841.75 1032.71 Q 844.39 1032.46 844.93 1029.98 Q 845.35 1028.03 846.04 1026.50 A 1.28 1.27 -61.1 0 0 845.58 1024.90 Q 843.26 1023.39 842.76 1020.80 Q 842.11 1017.38 843.09 1013.65 A 1.47 1.45 -63.8 0 0 842.58 1012.12 Q 840.86 1010.78 839.21 1010.42 Q 836.07 1009.74 832.92 1009.12 Q 829.23 1008.38 826.54 1008.39 Q 821.65 1008.41 816.89 1009.54 Q 812.29 1010.64 810.41 1010.98 Q 805.82 1011.83 803.94 1012.69 Q 801.99 1013.58 800.53 1013.96 Q 798.35 1014.53 797.17 1015.12 Q 795.15 1016.11 792.31 1017.06 Q 786.09 1019.15 779.41 1022.74 Q 777.50 1023.77 772.26 1026.22 Q 769.25 1027.64 765.19 1029.94 Q 757.40 1034.35 746.48 1039.30 Q 737.23 1043.49 727.74 1046.17 Q 716.24 1049.42 707.25 1051.00 Q 699.24 1052.40 696.02 1053.57 Q 686.08 1057.17 675.54 1057.47 Q 675.42 1057.48 671.98 1057.76 Q 670.29 1057.90 668.63 1057.62 Q 666.25 1057.22 665.33 1057.20 Q 662.88 1057.12 660.43 1057.06 Q 657.83 1056.99 655.67 1056.25 Q 645.46 1052.78 635.44 1045.56 Q 632.58 1043.51 632.87 1040.55 A 1.65 0.95 -70.4 0 0 632.70 1039.62 L 631.11 1037.08 A 1.83 1.18 38.5 0 1 630.81 1036.19 Q 630.79 1031.74 630.94 1027.29 Q 630.98 1025.83 631.73 1023.86 Q 632.38 1022.17 632.62 1020.38 Q 633.05 1017.06 633.46 1015.71 Q 634.55 1012.09 634.56 1011.06 Q 634.63 1006.86 636.19 1003.44 Q 640.30 994.44 641.79 985.12 Q 642.26 982.25 643.07 978.45 Q 643.78 975.11 644.05 971.70 Q 644.21 969.64 645.09 966.84 Q 645.94 964.14 646.00 961.25 Q 646.02 960.12 647.17 956.51 Q 647.85 954.36 648.10 951.75 Q 648.61 946.35 650.44 941.69 Q 651.61 938.70 651.81 935.80 Q 651.98 933.24 652.63 931.49 Q 653.56 929.02 654.26 926.47 Q 654.29 926.38 656.20 920.69 Q 656.87 918.68 657.09 916.55 Q 657.37 913.73 657.74 912.41 Q 659.93 904.40 662.72 896.58 Q 664.38 891.91 665.60 886.72 Q 666.79 881.70 668.28 876.76 Q 669.60 872.39 669.80 867.88 Q 669.90 865.56 668.79 862.68 Q 667.26 858.70 666.25 854.54 Z"/>
</svg>